<?xml version="1.0" encoding="UTF-8" standalone="no"?>
<svg
   xmlns:dc="http://purl.org/dc/elements/1.1/"
   xmlns:cc="http://creativecommons.org/ns#"
   xmlns:rdf="http://www.w3.org/1999/02/22-rdf-syntax-ns#"
   xmlns:svg="http://www.w3.org/2000/svg"
   xmlns="http://www.w3.org/2000/svg"
   xmlns:sodipodi="http://sodipodi.sourceforge.net/DTD/sodipodi-0.dtd"
   xmlns:inkscape="http://www.inkscape.org/namespaces/inkscape"
   version="1.1"
   id="svg8"
   inkscape:export-filename="/media/juhele/data_2TB/_GRAFIKA/GHS hazard symbols/GHS06_toxic_substances.png"
   inkscape:export-xdpi="99.027519"
   inkscape:export-ydpi="99.027519"
   inkscape:version="1.0.1 (3bc2e813f5, 2020-09-07)"
   sodipodi:docname="21.svg"
   x="0px"
   y="0px"
   viewBox="0 0 125 125"
   xml:space="preserve"
   width="125"
   height="125"><metadata
   id="metadata1655"><rdf:RDF><cc:Work
       rdf:about=""><dc:format>image/svg+xml</dc:format><dc:type
         rdf:resource="http://purl.org/dc/dcmitype/StillImage" /><dc:title /></cc:Work></rdf:RDF></metadata><defs
   id="defs1653" /><sodipodi:namedview
   pagecolor="#ffffff"
   bordercolor="#666666"
   borderopacity="1"
   objecttolerance="10"
   gridtolerance="10"
   guidetolerance="10"
   inkscape:pageopacity="0"
   inkscape:pageshadow="2"
   inkscape:window-width="1920"
   inkscape:window-height="1137"
   id="namedview1651"
   showgrid="false"
   inkscape:zoom="1.0934881"
   inkscape:cx="112.07682"
   inkscape:cy="95.108498"
   inkscape:window-x="-8"
   inkscape:window-y="-8"
   inkscape:window-maximized="1"
   inkscape:current-layer="layer3"
   inkscape:document-rotation="0" />
<style
   type="text/css"
   id="style1640">
	.st0{fill:#FFEB1D;}
</style>

<g
   id="layer3"
   transform="translate(-73.77379,-919.55022)"
   inkscape:groupmode="layer"
   inkscape:label="Ebene 2">
	
		<g
   id="g1675"
   transform="matrix(0.08406927,0,0,0.08406927,97.499043,930.44008)"><g
     transform="translate(73.77379,269.05022)"
     id="g1663"><g
       id="g1646">
	<polygon
   class="st0"
   points="387,36.4 746.6,657.8 28.2,657.8 "
   id="polygon1642"
   style="fill:#ffeb1d" />
	<path
   d="m 411.7,41.6 v 0 0 M 387,84.4 705,633.8 H 69.8 L 387,84.4 m 0,-76.5 c -6.6,0 -13.1,3.2 -16.9,9.7 L 3.5,652.6 c -7.5,13 1.9,29.2 16.9,29.2 h 734.1 c 15,0 24.4,-16.2 16.9,-29.2 L 404,17.6 C 400.1,11.1 393.5,7.9 387,7.9 Z"
   id="path1644"
   inkscape:connector-curvature="0" />
</g></g><g
     id="g1658" /></g>
<path
   d="m 137.08647,986.58719 c 0.92375,-1.80982 2.83231,-2.32712 4.25798,-1.15383 1.4271,1.17328 1.835,3.59008 0.91126,5.4017 -0.92517,1.80981 -2.83232,2.32531 -4.25941,1.15382 -1.4271,-1.17327 -1.83499,-3.59188 -0.90983,-5.40169 z m -12.51462,16.60461 c 1.32598,-3.26807 3.40242,-0.9518 3.40242,-0.9518 -1.25667,0.1409 -1.31773,1.6272 -1.09162,2.5066 0.27041,1.05 1.197,1.4528 1.65604,1.5954 h 0.40364 c 0.46471,-0.1178 1.48674,-0.6578 2.4994,-3.1502 1.32881,-3.26807 3.40241,-0.9518 3.40241,-0.9518 -1.25667,0.1409 -1.31489,1.6272 -1.08878,2.5066 0.269,1.05 1.19417,1.4528 1.65889,1.5954 h 0.33149 c 0.46613,-0.1178 1.48958,-0.6578 2.50081,-3.1502 1.33165,-3.26807 3.40242,-0.9518 3.40242,-0.9518 -1.25382,0.1409 -1.3149,1.6272 -1.08594,2.5066 0.269,1.05 1.19274,1.4528 1.65461,1.5954 h 0.4008 c 0.4633,-0.1178 1.49101,-0.6578 2.49799,-3.1502 1.3342,-3.26807 3.40098,-0.9518 3.40098,-0.9518 -1.25382,0.1409 -1.31347,1.6272 -1.08594,2.5066 0.269,1.05 1.19276,1.4528 1.65463,1.5954 h 1.39044 v -4.714 h -0.93767 c -0.45505,-0.1408 -1.36203,-0.5346 -1.62706,-1.5547 -0.22184,-0.86206 -0.16504,-2.31309 1.06804,-2.44857 0,0 -2.03184,-2.25685 -3.33992,0.92687 -0.3508,0.85844 -0.70189,1.4687 -1.03196,1.919 l -3.99154,-5.21547 -4.77809,-3.92403 -1.69638,-1.39482 v 0 l -3.39674,-2.78966 -1.6407,-7.18882 c -0.20537,-0.90238 -0.94589,-1.40527 -1.66171,-1.16104 -0.71157,0.26226 -1.12202,1.20499 -0.91552,2.10737 l 1.77961,7.79762 c 0.0915,0.3941 0.28859,0.73164 0.56043,0.95498 l 3.81572,3.1326 -4.25515,8.33037 c -0.29257,-0.2428 -0.56186,-0.5716 -0.68513,-1.0482 -0.22185,-0.86213 -0.16362,-2.31307 1.06804,-2.44856 0,0 -2.03185,-2.25686 -3.33566,0.92688 -0.99874,2.42908 -2.00429,2.96038 -2.45764,3.07638 h -0.94647 v 4.714 c 0.4633,-0.1178 1.48533,-0.6578 2.50081,-3.1503 z"
   id="path10"
   style="stroke-width:0.319884" /></g>
</svg>
