<?xml version="1.0" encoding="utf-8"?>
<!-- Generator: Adobe Illustrator 15.1.0, SVG Export Plug-In . SVG Version: 6.00 Build 0)  -->
<!DOCTYPE svg PUBLIC "-//W3C//DTD SVG 1.1//EN" "http://www.w3.org/Graphics/SVG/1.1/DTD/svg11.dtd">
<svg version="1.1" id="Laag_1" xmlns="http://www.w3.org/2000/svg" xmlns:xlink="http://www.w3.org/1999/xlink" x="0px" y="0px"
	 width="517.909px" height="559.944px" viewBox="0 0 517.909 559.944" enable-background="new 0 0 517.909 559.944"
	 xml:space="preserve">
<g>
	<defs>
		<rect id="SVGID_1_" width="517.909" height="559.944"/>
	</defs>
	<clipPath id="SVGID_2_">
		<use xlink:href="#SVGID_1_"  overflow="visible"/>
	</clipPath>
	<path clip-path="url(#SVGID_2_)" fill="#FFD700" d="M363.01,253.826c-33.359,0.01-33.37,0.01-33.37-34.02V58.646H157.15
		c0,59.74-0.61,118.36,0.42,176.95c0.26,15.32-5.07,18.9-18.8,18.43c-21.57-0.75-43.19-0.2-68.62-0.2
		c59.44,93.48,116.69,183.51,174.56,274.52c58.66-92.42,115.06-181.27,174.25-274.52C397.73,253.826,380.37,253.816,363.01,253.826
		 M244.67,463.006c-36.04-56.55-70.38-110.41-107.03-167.9c12.88,0,21.7,0.2,30.42,0.181c25.26-0.05,23.26-3.851,22.86-21.88
		c-1.14-52.13,0.24-104.32-0.8-156.46c-0.3-15.13,4.81-18.35,18.65-18.36c33.15-0.04,48.23-0.04,72.75,0.07
		c13.601,0.06,19.051,3.11,18.74,18.38c-1.1,52.75,0.15,105.54-0.89,158.28c-0.311,16.03,1.14,20.26,20.24,20.01
		c8.79-0.12,17.72-0.221,31.649-0.221C314.75,352.617,281,405.787,244.67,463.006"/>
	<path clip-path="url(#SVGID_2_)" fill="#FFFFFF" d="M351.26,295.106c-36.51,57.511-70.26,110.681-106.59,167.9
		c-36.04-56.55-70.38-110.41-107.03-167.9c12.88,0,21.7,0.2,30.42,0.181c25.26-0.05,23.26-3.851,22.86-21.88
		c-1.14-52.13,0.24-104.32-0.8-156.46c-0.3-15.13,4.81-18.35,18.65-18.36c33.15-0.04,48.23-0.04,72.75,0.07
		c13.601,0.06,19.051,3.11,18.74,18.38c-1.1,52.75,0.15,105.54-0.89,158.28c-0.311,16.03,1.14,20.26,20.24,20.01
		C328.4,295.207,337.33,295.106,351.26,295.106"/>
</g>
</svg>
