<svg id="Laag_1" data-name="Laag 1" xmlns="http://www.w3.org/2000/svg" viewBox="0 0 348.81 469.7"><defs><style>.cls-1{fill:#898989;}.cls-2{fill:#fff;}</style></defs><path class="cls-1" d="M292.86,195.18c-33.36,0-33.37,0-33.37-34V0H87c0,59.74-.61,118.36.42,177,.26,15.32-5.07,18.9-18.8,18.43-21.57-.75-43.19-.2-68.62-.2L174.56,469.7,348.81,195.18C327.58,195.18,310.22,195.17,292.86,195.18ZM174.52,404.36c-36-56.55-70.38-110.41-107-167.9,12.88,0,21.7.2,30.42.18,25.26,0,23.26-3.85,22.86-21.88-1.14-52.13.24-104.32-.8-156.46-.3-15.13,4.81-18.35,18.65-18.36,33.15,0,48.23,0,72.75.07,13.6.06,19,3.11,18.74,18.38-1.1,52.75.15,105.54-.89,158.28-.31,16,1.14,20.26,20.24,20,8.79-.12,17.72-.22,31.65-.22Z"/><path class="cls-2" d="M281.11,236.46,174.52,404.36c-36-56.55-70.38-110.41-107-167.9,12.88,0,21.7.2,30.42.18,25.26,0,23.26-3.85,22.86-21.88-1.14-52.13.24-104.32-.8-156.46-.3-15.13,4.81-18.35,18.65-18.36,33.15,0,48.23,0,72.75.07,13.6.06,19,3.11,18.74,18.38-1.1,52.75.15,105.54-.89,158.28-.31,16,1.14,20.26,20.24,20C258.25,236.56,267.18,236.46,281.11,236.46Z"/></svg>