<?xml version="1.0" encoding="UTF-8"?><svg id="Laag_1" xmlns="http://www.w3.org/2000/svg" viewBox="0 0 348.81 469.7"><defs><style>.cls-1{fill:#fff;}.cls-1,.cls-2{stroke-width:0px;}.cls-2{fill:#c652e2;}</style></defs><path class="cls-2" d="m292.86,195.18q-33.36.01-33.37-34.02V0H87c0,59.74-.61,118.36.42,176.95.26,15.32-5.07,18.9-18.8,18.43-21.57-.75-43.19-.2-68.62-.2,59.44,93.48,116.69,183.51,174.56,274.52,58.66-92.42,115.06-181.27,174.25-274.52-21.23,0-38.59-.01-55.95,0Zm-118.34,209.18c-36.04-56.55-70.38-110.41-107.03-167.9,12.88,0,21.7.2,30.42.18,25.26-.05,23.26-3.85,22.86-21.88-1.14-52.13.24-104.32-.8-156.46-.3-15.13,4.81-18.35,18.65-18.36,33.15-.04,48.23-.04,72.75.07,13.6.06,19.05,3.11,18.74,18.38-1.1,52.75.15,105.54-.89,158.28-.31,16.03,1.14,20.26,20.24,20.01,8.79-.12,17.72-.22,31.65-.22-36.51,57.51-70.26,110.68-106.59,167.9Z"/><path class="cls-1" d="m281.11,236.46c-36.51,57.51-70.26,110.68-106.59,167.9-36.04-56.55-70.38-110.41-107.03-167.9,12.88,0,21.7.2,30.42.18,25.26-.05,23.26-3.85,22.86-21.88-1.14-52.13.24-104.32-.8-156.46-.3-15.13,4.81-18.35,18.65-18.36,33.15-.04,48.23-.04,72.75.07,13.6.06,19.05,3.11,18.74,18.38-1.1,52.75.15,105.54-.89,158.28-.31,16.03,1.14,20.26,20.24,20.01,8.79-.12,17.72-.22,31.65-.22Z"/></svg>