<?xml version="1.0" encoding="utf-8"?>
<!-- Generator: Adobe Illustrator 28.0.0, SVG Export Plug-In . SVG Version: 6.00 Build 0)  -->
<svg version="1.1" id="Laag_1" xmlns="http://www.w3.org/2000/svg" xmlns:xlink="http://www.w3.org/1999/xlink" x="0px" y="0px"
	 viewBox="0 0 517.91 559.94" style="enable-background:new 0 0 517.91 559.94;" xml:space="preserve">
<style type="text/css">
	.st0{fill:#C652E2;}
	.st1{fill:#FFFFFF;}
</style>
<g>
	<path class="st0" d="M363.01,253.83c-33.36,0.01-33.37,0.01-33.37-34.02V58.65H157.15c0,59.74-0.61,118.36,0.42,176.95
		c0.26,15.32-5.07,18.9-18.8,18.43c-21.57-0.75-43.19-0.2-68.62-0.2c59.44,93.48,116.69,183.51,174.56,274.52
		c58.66-92.42,115.06-181.27,174.25-274.52C397.73,253.83,380.37,253.82,363.01,253.83z M244.67,463.01
		c-36.04-56.55-70.38-110.41-107.03-167.9c12.88,0,21.7,0.2,30.42,0.18c25.26-0.05,23.26-3.85,22.86-21.88
		c-1.14-52.13,0.24-104.32-0.8-156.46c-0.3-15.13,4.81-18.35,18.65-18.36c33.15-0.04,48.23-0.04,72.75,0.07
		c13.6,0.06,19.05,3.11,18.74,18.38c-1.1,52.75,0.15,105.54-0.89,158.28c-0.31,16.03,1.14,20.26,20.24,20.01
		c8.79-0.12,17.72-0.22,31.65-0.22C314.75,352.62,281,405.79,244.67,463.01z"/>
	<path class="st1" d="M351.26,295.11c-36.51,57.51-70.26,110.68-106.59,167.9c-36.04-56.55-70.38-110.41-107.03-167.9
		c12.88,0,21.7,0.2,30.42,0.18c25.26-0.05,23.26-3.85,22.86-21.88c-1.14-52.13,0.24-104.32-0.8-156.46
		c-0.3-15.13,4.81-18.35,18.65-18.36c33.15-0.04,48.23-0.04,72.75,0.07c13.6,0.06,19.05,3.11,18.74,18.38
		c-1.1,52.75,0.15,105.54-0.89,158.28c-0.31,16.03,1.14,20.26,20.24,20.01C328.4,295.21,337.33,295.11,351.26,295.11z"/>
</g>
</svg>
