<?xml version="1.0" encoding="UTF-8"?><svg id="Laag_1" xmlns="http://www.w3.org/2000/svg" viewBox="0 0 145.29 145.71"><defs><style>.cls-1{fill:#fff;}.cls-1,.cls-2,.cls-3,.cls-4{stroke-width:0px;}.cls-2{fill:#f7f7f6;}.cls-3{fill:#c652e2;}.cls-4{fill:#1d1d1d;}</style></defs><path class="cls-3" d="m73.15,0c20.13,0,40.27,0,60.4,0,5.87,0,11.73,5.66,11.73,11.43.01,41.11.02,82.22-.06,123.33,0,1.45-.94,2.96-1.63,4.34-.35.71-1.2,1.15-1.71,1.79-2.73,3.43-5.83,4.57-10.59,4.41-16.38-.56-32.8-.2-49.2-.19-22.2.01-44.4.02-66.6.03-.17,0-.35-.07-.49-.02-6.3,2.11-9.87-1.95-13.27-6.06-.94-1.14-1.65-2.86-1.66-4.31C-.02,93.65,0,52.53.01,11.42.01,5.65,5.87,0,11.75,0c20.47,0,40.93,0,61.4,0Z"/><path class="cls-1" d="m72.87,13.73c17.97,0,35.94,0,53.91,0,5.02,0,5.07,0,5.07,4.83.01,36.29.01,72.57,0,108.86,0,4.47-.05,4.54-4.32,4.54-36.61.02-73.22.02-109.82,0-4.23,0-4.27-.07-4.27-4.51-.01-36.29-.01-72.57,0-108.86,0-4.83.04-4.85,5.02-4.85,18.14,0,36.27,0,54.41,0Z"/><path class="cls-4" d="m85.59,108.9c-8.63,0-17.26.02-25.89-.01-4.23-.02-4.93-.69-4.94-4.9-.03-7.44,0-14.88.07-22.31.03-2.46.03-4.59-3.19-5.2-.84-.16-2-1.9-1.93-2.83.07-1.01,1.23-2.4,2.23-2.79,2.76-1.07,5.68-1.73,8.55-2.49,8.59-2.27,17.21-4.47,25.79-6.77,3.96-1.06,7.84-2.38,11.81-3.39,1.13-.29,2.73-.3,3.63.29,6.21,4.1,12.33,8.36,18.41,12.66,3.35,2.37,3.05,4.42-1,6.02-1.89.75-2.4,1.72-2.36,3.7.15,7.77.12,15.55.08,23.32-.02,4.43-.27,4.62-4.87,4.63-8.8,0-17.59,0-26.39,0,0,.02,0,.04,0,.07Z"/><path class="cls-4" d="m31.54,83.24c0-3.15-.01-6.29,0-9.44.01-2.67,1.21-5.81-3.3-6.33-.59-.07-1.27-2.55-1.22-3.89.03-.8,1.27-1.99,2.19-2.26,7.89-2.33,15.84-4.48,23.77-6.72,6.65-1.88,13.32-3.69,19.91-5.78,2.63-.83,4.72-.65,6.92,1.06,2.08,1.63,4.45,2.87,6.61,4.39.76.53,1.28,1.39,1.91,2.11-.84.68-1.59,1.5-2.52,2-2.58,1.38-4.86.43-6.82-1.33-2.4-2.16-4.58-1.93-7.65-.94-9.07,2.94-18.32,5.35-27.58,7.65-5.9,1.47-6.57,1.95-6.57,7.78,0,5.47-.06,10.94,0,16.41.04,3.65.7,4.27,4.39,4.31,2.3.02,4.6-.06,6.89-.17,2.12-.1,3,.9,3.02,2.97.03,1.98-.08,3.79-2.7,3.8-4.82.02-9.64,0-14.45-.03-2.48-.02-2.9-1.59-2.85-3.7.09-3.97.03-7.94.03-11.91,0,0,.02,0,.03,0Z"/><path class="cls-4" d="m106.16,49.71c1.74-4.67-2.21-6.92-5.71-9.56-4.75-3.57-9.42-3.15-14.78-1.13-5.96,2.25-12.33,3.4-18.52,5.04-2.87.76-5.76,1.47-8.6,2.33-.72.22-1.31.9-1.92,1.42-1.17.99-2.38,2.91-3.45,2.83-2.19-.18-4.55-1.05-6.38-2.32-2.49-1.73-2.15-4.15.71-5.29,3.19-1.27,6.57-2.08,9.9-2.96,6.38-1.69,12.8-3.23,19.17-4.95,3.8-1.02,7.57-2.17,11.3-3.44,4.54-1.54,8.64-2.2,12.96,1.29,4.74,3.84,10.17,6.81,15.21,10.28.93.64,2.22,2.15,2,2.78-.47,1.31-1.74,3.15-2.85,3.27-2.68.29-2.81,1.68-2.7,3.71.1,1.82.14,3.67-.01,5.49-.2,2.42-1.2,2.81-3.21,1.41-2.49-1.75-3.13-3.66-3.12-10.2Z"/><path class="cls-2" d="m110.67,87.16c0,3.83-.07,7.66.02,11.49.07,2.74-1.05,3.98-3.83,3.87-2.57-.1-3.32-1.31-3.22-3.81.21-5.27.14-10.54.18-15.82.03-3.85-.27-4.27-4.24-4.24-11.6.08-9.93-1.36-10,9.48-.02,3.31-.06,6.63.16,9.93.2,3.02-1.07,4.29-3.99,4.29-7.14-.01-14.29.05-21.43,0-2.46-.01-3.96-.85-3.87-3.86.2-6.65.13-13.31.03-19.97-.04-2.38.77-3.59,3.17-4.2,8-2.05,15.94-4.28,23.9-6.48,2.38-.66,4.81-1.26,7.05-2.26,3.18-1.41,5.58-.4,8.22,1.46,9.15,6.45,7.7,3.15,7.85,14.62.02,1.83,0,3.66,0,5.49Z"/><path class="cls-4" d="m80.59,84.92c.05,1.01.1,1.83.12,2.66.1,3.86-.22,4.19-4.11,4.34q-7.81.3-8-7.72-.13-5.55,5.21-5.57c.66,0,1.33-.01,1.99,0,4.92.09,5.05.22,4.91,5-.02.49-.1.99-.13,1.3Z"/></svg>