<?xml version="1.0" encoding="utf-8"?>
<!-- Generator: Adobe Illustrator 28.0.0, SVG Export Plug-In . SVG Version: 6.00 Build 0)  -->
<svg version="1.1" id="Laag_1" xmlns="http://www.w3.org/2000/svg" xmlns:xlink="http://www.w3.org/1999/xlink" x="0px" y="0px"
	 viewBox="0 0 345.2 325.97" style="enable-background:new 0 0 345.2 325.97;" xml:space="preserve">
<style type="text/css">
	.st0{fill:#C652E2;}
	.st1{fill:#FFFFFF;}
	.st2{fill:#1D1D1D;}
	.st3{fill:#F7F7F6;}
</style>
<g>
	<g>
		<path class="st0" d="M211.82,85.7c20.13,0,40.27,0,60.4,0c5.87,0,11.73,5.66,11.73,11.43c0.01,41.11,0.02,82.22-0.06,123.33
			c0,1.45-0.94,2.96-1.63,4.34c-0.35,0.71-1.2,1.15-1.71,1.79c-2.73,3.43-5.83,4.57-10.59,4.41c-16.38-0.56-32.8-0.2-49.2-0.19
			c-22.2,0.01-44.4,0.02-66.6,0.03c-0.17,0-0.35-0.07-0.49-0.02c-6.3,2.11-9.87-1.95-13.27-6.06c-0.94-1.14-1.65-2.86-1.66-4.31
			c-0.08-41.11-0.07-82.22-0.05-123.33c0-5.77,5.85-11.42,11.74-11.42C170.89,85.7,191.35,85.7,211.82,85.7z"/>
		<path class="st1" d="M211.54,99.43c17.97,0,35.94,0,53.91,0c5.02,0,5.07,0,5.07,4.83c0.01,36.29,0.01,72.57,0,108.86
			c0,4.47-0.05,4.54-4.32,4.54c-36.61,0.02-73.22,0.02-109.82,0c-4.23,0-4.27-0.07-4.27-4.51c-0.01-36.29-0.01-72.57,0-108.86
			c0-4.83,0.04-4.85,5.02-4.85C175.27,99.43,193.41,99.43,211.54,99.43z"/>
		<path class="st2" d="M224.26,194.6c-8.63,0-17.26,0.02-25.89-0.01c-4.23-0.02-4.93-0.69-4.94-4.9c-0.03-7.44,0-14.88,0.07-22.31
			c0.03-2.46,0.03-4.59-3.19-5.2c-0.84-0.16-2-1.9-1.93-2.83c0.07-1.01,1.23-2.4,2.23-2.79c2.76-1.07,5.68-1.73,8.55-2.49
			c8.59-2.27,17.21-4.47,25.79-6.77c3.96-1.06,7.84-2.38,11.81-3.39c1.13-0.29,2.73-0.3,3.63,0.29c6.21,4.1,12.33,8.36,18.41,12.66
			c3.35,2.37,3.05,4.42-1,6.02c-1.89,0.75-2.4,1.72-2.36,3.7c0.15,7.77,0.12,15.55,0.08,23.32c-0.02,4.43-0.27,4.62-4.87,4.63
			c-8.8,0.01-17.59,0-26.39,0C224.26,194.55,224.26,194.58,224.26,194.6z"/>
		<path class="st2" d="M170.22,168.93c0-3.15-0.01-6.29,0-9.44c0.01-2.67,1.21-5.81-3.3-6.33c-0.59-0.07-1.27-2.55-1.22-3.89
			c0.03-0.8,1.27-1.99,2.19-2.26c7.89-2.33,15.84-4.48,23.77-6.72c6.65-1.88,13.32-3.69,19.91-5.78c2.63-0.83,4.72-0.65,6.92,1.06
			c2.08,1.63,4.45,2.87,6.61,4.39c0.76,0.53,1.28,1.39,1.91,2.11c-0.84,0.68-1.59,1.5-2.52,2c-2.58,1.38-4.86,0.43-6.82-1.33
			c-2.4-2.16-4.58-1.93-7.65-0.94c-9.07,2.94-18.32,5.35-27.58,7.65c-5.9,1.47-6.57,1.95-6.57,7.78c0,5.47-0.06,10.94,0,16.41
			c0.04,3.65,0.7,4.27,4.39,4.31c2.3,0.02,4.6-0.06,6.89-0.17c2.12-0.1,3,0.9,3.02,2.97c0.03,1.98-0.08,3.79-2.7,3.8
			c-4.82,0.02-9.64,0.01-14.45-0.03c-2.48-0.02-2.9-1.59-2.85-3.7c0.09-3.97,0.03-7.94,0.03-11.91
			C170.2,168.93,170.21,168.93,170.22,168.93z"/>
		<path class="st2" d="M244.84,135.41c1.74-4.67-2.21-6.92-5.71-9.56c-4.75-3.57-9.42-3.15-14.78-1.13
			c-5.96,2.25-12.33,3.4-18.52,5.04c-2.87,0.76-5.76,1.47-8.6,2.33c-0.72,0.22-1.31,0.9-1.92,1.42c-1.17,0.99-2.38,2.91-3.45,2.83
			c-2.19-0.18-4.55-1.05-6.38-2.32c-2.49-1.73-2.15-4.15,0.71-5.29c3.19-1.27,6.57-2.08,9.9-2.96c6.38-1.69,12.8-3.23,19.17-4.95
			c3.8-1.02,7.57-2.17,11.3-3.44c4.54-1.54,8.64-2.2,12.96,1.29c4.74,3.84,10.17,6.81,15.21,10.28c0.93,0.64,2.22,2.15,2,2.78
			c-0.47,1.31-1.74,3.15-2.85,3.27c-2.68,0.29-2.81,1.68-2.7,3.71c0.1,1.82,0.14,3.67-0.01,5.49c-0.2,2.42-1.2,2.81-3.21,1.41
			C245.47,143.86,244.83,141.94,244.84,135.41z"/>
		<path class="st3" d="M249.34,172.86c0,3.83-0.07,7.66,0.02,11.49c0.07,2.74-1.05,3.98-3.83,3.87c-2.57-0.1-3.32-1.31-3.22-3.81
			c0.21-5.27,0.14-10.54,0.18-15.82c0.03-3.85-0.27-4.27-4.24-4.24c-11.6,0.08-9.93-1.36-10,9.48c-0.02,3.31-0.06,6.63,0.16,9.93
			c0.2,3.02-1.07,4.29-3.99,4.29c-7.14-0.01-14.29,0.05-21.43,0.01c-2.46-0.01-3.96-0.85-3.87-3.86c0.2-6.65,0.13-13.31,0.03-19.97
			c-0.04-2.38,0.77-3.59,3.17-4.2c8-2.05,15.94-4.28,23.9-6.48c2.38-0.66,4.81-1.26,7.05-2.26c3.18-1.41,5.58-0.4,8.22,1.46
			c9.15,6.45,7.7,3.15,7.85,14.62C249.36,169.19,249.34,171.03,249.34,172.86z"/>
		<path class="st2" d="M219.26,170.62c0.05,1.01,0.1,1.83,0.12,2.66c0.1,3.86-0.22,4.19-4.11,4.34c-7.81,0.3-7.81,0.3-8-7.72
			c-0.13-5.55-0.13-5.55,5.21-5.57c0.66,0,1.33-0.01,1.99,0c4.92,0.09,5.05,0.22,4.91,5C219.38,169.82,219.3,170.31,219.26,170.62z"
			/>
	</g>
</g>
</svg>
