<?xml version="1.0" encoding="utf-8"?>
<!-- Generator: Adobe Illustrator 15.1.0, SVG Export Plug-In . SVG Version: 6.00 Build 0)  -->
<!DOCTYPE svg PUBLIC "-//W3C//DTD SVG 1.1//EN" "http://www.w3.org/Graphics/SVG/1.1/DTD/svg11.dtd">
<svg version="1.1" id="Laag_1" xmlns="http://www.w3.org/2000/svg" xmlns:xlink="http://www.w3.org/1999/xlink" x="0px" y="0px"
	 width="345.199px" height="325.972px" viewBox="0 0 345.199 325.972" enable-background="new 0 0 345.199 325.972"
	 xml:space="preserve">
<g>
	<defs>
		<rect id="SVGID_1_" width="345.199" height="325.972"/>
	</defs>
	<clipPath id="SVGID_2_">
		<use xlink:href="#SVGID_1_"  overflow="visible"/>
	</clipPath>
	<path clip-path="url(#SVGID_2_)" fill="#FFD700" d="M211.819,85.7c20.134,0,40.267,0.001,60.4-0.001
		c5.873,0,11.729,5.664,11.73,11.427c0.011,41.111,0.024,82.223-0.061,123.334c-0.004,1.455-0.938,2.957-1.633,4.341
		c-0.353,0.706-1.196,1.148-1.713,1.794c-2.732,3.429-5.833,4.569-10.587,4.408c-16.384-0.555-32.799-0.196-49.202-0.187
		c-22.198,0.013-44.397,0.023-66.597,0.034c-0.165,0-0.349-0.071-0.494-0.022c-6.301,2.112-9.871-1.951-13.273-6.058
		c-0.941-1.136-1.653-2.859-1.656-4.314c-0.083-41.111-0.066-82.223-0.052-123.335c0.002-5.768,5.853-11.422,11.737-11.422
		C170.886,85.701,191.354,85.7,211.819,85.7"/>
	<path clip-path="url(#SVGID_2_)" fill="#FFFFFF" d="M211.543,99.43c17.971-0.003,35.941-0.002,53.912-0.003
		c5.022,0,5.066-0.002,5.069,4.827c0.012,36.286,0.013,72.572-0.003,108.857c-0.002,4.469-0.055,4.54-4.319,4.543
		c-36.608,0.02-73.216,0.02-109.823,0c-4.229-0.002-4.269-0.071-4.27-4.51c-0.011-36.286-0.012-72.572,0-108.858
		c0.002-4.832,0.043-4.848,5.023-4.85C175.269,99.428,193.406,99.433,211.543,99.43"/>
	<path clip-path="url(#SVGID_2_)" fill="#1D1D1D" d="M224.258,194.598c-8.631,0-17.263,0.023-25.894-0.01
		c-4.229-0.017-4.928-0.692-4.942-4.901c-0.028-7.437-0.005-14.875,0.072-22.312c0.024-2.458,0.031-4.594-3.191-5.198
		c-0.844-0.158-1.996-1.895-1.929-2.83c0.071-1.007,1.227-2.399,2.231-2.787c2.76-1.068,5.678-1.735,8.551-2.493
		c8.593-2.268,17.204-4.467,25.789-6.767c3.956-1.06,7.844-2.385,11.812-3.388c1.134-0.287,2.731-0.3,3.631,0.294
		c6.211,4.104,12.326,8.358,18.407,12.656c3.352,2.369,3.047,4.42-1.003,6.021c-1.895,0.749-2.396,1.723-2.357,3.7
		c0.15,7.771,0.117,15.548,0.084,23.321c-0.019,4.432-0.267,4.621-4.87,4.625c-8.797,0.01-17.594,0.003-26.391,0.003
		C224.258,194.555,224.258,194.577,224.258,194.598"/>
	<path clip-path="url(#SVGID_2_)" fill="#1D1D1D" d="M170.216,168.934c0-3.146-0.013-6.291,0.004-9.437
		c0.014-2.666,1.206-5.813-3.303-6.334c-0.593-0.068-1.271-2.551-1.218-3.888c0.032-0.804,1.275-1.988,2.193-2.26
		c7.895-2.335,15.844-4.481,23.767-6.722c6.649-1.88,13.321-3.694,19.907-5.778c2.632-0.832,4.723-0.654,6.915,1.061
		c2.077,1.625,4.448,2.869,6.612,4.391c0.756,0.532,1.279,1.395,1.908,2.106c-0.836,0.676-1.592,1.5-2.522,1.999
		c-2.579,1.381-4.864,0.432-6.817-1.325c-2.397-2.157-4.579-1.934-7.649-0.939c-9.067,2.941-18.319,5.348-27.575,7.655
		c-5.903,1.471-6.574,1.947-6.575,7.783c0,5.469-0.061,10.939-0.004,16.407c0.038,3.647,0.701,4.271,4.388,4.31
		c2.297,0.024,4.599-0.063,6.895-0.165c2.121-0.097,2.996,0.902,3.022,2.973c0.026,1.985-0.078,3.791-2.694,3.802
		c-4.818,0.02-9.637,0.005-14.453-0.029c-2.479-0.02-2.901-1.588-2.853-3.696c0.093-3.969,0.027-7.941,0.027-11.912H170.216z"/>
	<path clip-path="url(#SVGID_2_)" fill="#1D1D1D" d="M244.835,135.413c1.737-4.671-2.213-6.925-5.714-9.558
		c-4.748-3.572-9.418-3.147-14.78-1.126c-5.961,2.247-12.333,3.402-18.523,5.037c-2.873,0.759-5.76,1.473-8.601,2.335
		c-0.717,0.218-1.306,0.902-1.916,1.417c-1.169,0.988-2.385,2.913-3.449,2.827c-2.193-0.178-4.556-1.054-6.38-2.319
		c-2.49-1.727-2.146-4.153,0.71-5.291c3.19-1.269,6.572-2.08,9.904-2.964c6.38-1.691,12.8-3.235,19.173-4.954
		c3.798-1.024,7.569-2.175,11.296-3.435c4.544-1.537,8.644-2.204,12.955,1.293c4.736,3.84,10.17,6.81,15.214,10.284
		c0.931,0.64,2.224,2.149,2,2.78c-0.466,1.315-1.741,3.151-2.847,3.27c-2.684,0.288-2.809,1.684-2.701,3.706
		c0.098,1.825,0.139,3.668-0.011,5.486c-0.198,2.421-1.204,2.813-3.205,1.409C245.471,143.863,244.833,141.945,244.835,135.413"/>
	<path clip-path="url(#SVGID_2_)" fill="#F7F7F6" d="M249.342,172.857c-0.001,3.828-0.072,7.659,0.023,11.485
		c0.069,2.736-1.048,3.979-3.834,3.869c-2.575-0.1-3.317-1.313-3.216-3.807c0.213-5.268,0.143-10.545,0.178-15.818
		c0.026-3.852-0.274-4.266-4.243-4.239c-11.6,0.076-9.927-1.364-10.001,9.478c-0.022,3.311-0.064,6.633,0.158,9.933
		c0.204,3.021-1.075,4.292-3.99,4.287c-7.144-0.012-14.288,0.047-21.432,0.009c-2.457-0.013-3.963-0.85-3.871-3.856
		c0.204-6.651,0.134-13.314,0.033-19.971c-0.035-2.378,0.771-3.587,3.171-4.202c7.996-2.045,15.945-4.278,23.898-6.484
		c2.378-0.66,4.808-1.262,7.051-2.257c3.183-1.412,5.582-0.397,8.222,1.464c9.152,6.45,7.705,3.148,7.851,14.615
		C249.363,169.194,249.343,171.026,249.342,172.857"/>
	<path clip-path="url(#SVGID_2_)" fill="#1D1D1D" d="M219.265,170.619c0.048,1.01,0.103,1.833,0.123,2.656
		c0.099,3.858-0.22,4.19-4.104,4.338c-7.81,0.297-7.81,0.297-8.002-7.717c-0.133-5.547-0.133-5.548,5.215-5.572
		c0.663-0.003,1.326-0.01,1.989,0.002c4.92,0.085,5.054,0.22,4.906,4.998C219.377,169.818,219.296,170.311,219.265,170.619"/>
</g>
</svg>
