<svg id="Laag_1" data-name="Laag 1" xmlns="http://www.w3.org/2000/svg" viewBox="0 0 145.29 145.71"><defs><style>.cls-1{fill:#898989;}.cls-2{fill:#fff;}.cls-3{fill:#1d1d1d;}.cls-4{fill:#f7f7f6;}</style></defs><path class="cls-1" d="M73.15,0h60.4c5.87,0,11.73,5.66,11.73,11.43q0,61.67-.06,123.33c0,1.46-.94,3-1.63,4.34-.36.71-1.2,1.15-1.72,1.8-2.73,3.42-5.83,4.57-10.58,4.4-16.39-.55-32.8-.19-49.21-.18l-66.59,0a1.71,1.71,0,0,0-.5,0c-6.3,2.11-9.87-1.95-13.27-6.06a7.42,7.42,0,0,1-1.66-4.31Q-.06,73.1,0,11.42C0,5.65,5.87,0,11.75,0Z"/><path class="cls-2" d="M72.87,13.73h53.91c5,0,5.07,0,5.07,4.83q0,54.42,0,108.85c0,4.47,0,4.54-4.32,4.55H17.71c-4.23,0-4.27-.08-4.27-4.51q0-54.44,0-108.86c0-4.83,0-4.85,5-4.85Z"/><path class="cls-3" d="M85.59,108.9c-8.64,0-17.27,0-25.9,0-4.23,0-4.92-.69-4.94-4.9q0-11.16.07-22.31c0-2.46,0-4.6-3.19-5.2a3.52,3.52,0,0,1-1.93-2.83,4,4,0,0,1,2.23-2.79,80.56,80.56,0,0,1,8.55-2.49c8.6-2.27,17.21-4.47,25.79-6.77,4-1.06,7.85-2.38,11.82-3.39a5.1,5.1,0,0,1,3.63.3c6.21,4.1,12.32,8.36,18.4,12.65,3.36,2.37,3,4.42-1,6-1.89.75-2.39,1.73-2.36,3.7.15,7.78.12,15.55.09,23.33,0,4.43-.27,4.62-4.87,4.62q-13.2,0-26.39,0Z"/><path class="cls-3" d="M31.54,83.24c0-3.15,0-6.3,0-9.44,0-2.67,1.2-5.81-3.3-6.34-.6-.06-1.27-2.55-1.22-3.88,0-.81,1.27-2,2.19-2.26C37.12,59,45.07,56.83,53,54.59c6.65-1.88,13.32-3.69,19.9-5.77,2.64-.84,4.73-.66,6.92,1.06s4.45,2.87,6.61,4.39a12.4,12.4,0,0,1,1.91,2.1,17.55,17.55,0,0,1-2.52,2c-2.58,1.38-4.87.43-6.82-1.32-2.4-2.16-4.58-1.94-7.65-.94C62.27,59.05,53,61.46,43.77,63.76c-5.91,1.48-6.58,1.95-6.58,7.79,0,5.47-.06,10.94,0,16.4,0,3.65.7,4.27,4.38,4.31,2.3,0,4.6-.06,6.9-.16,2.12-.1,3,.9,3,3s-.08,3.79-2.69,3.8q-7.23,0-14.46,0c-2.47,0-2.9-1.58-2.85-3.69.09-4,0-7.94,0-11.91Z"/><path class="cls-3" d="M106.16,49.71c1.74-4.67-2.21-6.92-5.71-9.55C95.7,36.58,91,37,85.67,39c-6,2.25-12.33,3.4-18.52,5-2.88.76-5.76,1.47-8.6,2.33a6.25,6.25,0,0,0-1.92,1.42c-1.17,1-2.39,2.91-3.45,2.83a13.67,13.67,0,0,1-6.38-2.32c-2.49-1.73-2.15-4.16.71-5.29a88.18,88.18,0,0,1,9.9-3c6.38-1.69,12.8-3.23,19.18-5q5.7-1.54,11.29-3.44c4.55-1.53,8.65-2.2,13,1.3,4.73,3.84,10.17,6.81,15.21,10.28.93.64,2.23,2.15,2,2.78-.46,1.31-1.74,3.15-2.84,3.27-2.69.29-2.81,1.68-2.71,3.71a40.09,40.09,0,0,1,0,5.48c-.19,2.42-1.2,2.81-3.2,1.41C106.8,58.16,106.16,56.25,106.16,49.71Z"/><path class="cls-4" d="M110.67,87.16c0,3.83-.07,7.66,0,11.48.07,2.74-1,4-3.83,3.87-2.58-.1-3.32-1.31-3.22-3.8.22-5.27.15-10.55.18-15.82,0-3.85-.27-4.27-4.24-4.24-11.6.08-9.93-1.36-10,9.48,0,3.31-.07,6.63.16,9.93.2,3-1.08,4.29-4,4.29-7.15,0-14.29,0-21.44,0-2.45,0-4-.86-3.87-3.86.21-6.65.14-13.32,0-20,0-2.38.77-3.59,3.17-4.2,8-2,15.94-4.28,23.9-6.49a50.76,50.76,0,0,0,7-2.26c3.18-1.41,5.58-.39,8.22,1.47,9.15,6.45,7.7,3.15,7.85,14.61C110.69,83.5,110.67,85.33,110.67,87.16Z"/><path class="cls-3" d="M80.59,84.92c0,1,.11,1.83.13,2.66.09,3.85-.22,4.19-4.11,4.33-7.81.3-7.81.3-8-7.71-.13-5.55-.13-5.55,5.21-5.57h2c4.92.08,5.06.22,4.91,5C80.71,84.12,80.62,84.61,80.59,84.92Z"/></svg>