<?xml version="1.0" encoding="UTF-8"?><svg id="Laag_1" xmlns="http://www.w3.org/2000/svg" viewBox="0 0 145.55 145.54"><defs><style>.cls-1{fill:#0e0e0e;}.cls-1,.cls-2,.cls-3{stroke-width:0px;}.cls-2{fill:#c652e2;}.cls-3{fill:#fbfafa;}</style></defs><path class="cls-2" d="m0,72.79c0-20.33,0-40.66,0-60.98C0,5.58,5.62,0,11.91,0,52.57,0,93.23,0,133.89,0c5.96,0,11.66,5.65,11.66,11.55,0,40.82.01,81.64,0,122.47,0,5.89-5.73,11.51-11.67,11.51-40.83,0-81.65,0-122.48,0-5.57,0-11.39-5.73-11.39-11.26-.02-20.49,0-40.99,0-61.48Z"/><path class="cls-3" d="m13.78,131.67V13.82c1.64-.09,3.22-.24,4.81-.24,35.83-.01,71.66-.02,107.5,0,5.89,0,5.91.03,5.91,5.74,0,36-.03,72,.06,108,0,3.23-.54,4.77-4.28,4.76-37.16-.12-74.33-.08-111.49-.09-.65,0-1.29-.15-2.5-.3Z"/><path class="cls-1" d="m76.06,50.96c7.35,9.55,14.68,19.1,22.03,28.64,3.03,3.93,6.37,7.66,9.07,11.81,2.26,3.46,4.82,5.09,9.02,4.48,2.36-.34,5.2-.69,5.13,3.38-.07,3.83-2.56,3.56-5.15,3.56-28.78,0-57.56.06-86.34.03-1.59,0-3.54-.14-4.64-1.05-.84-.69-1.03-2.83-.66-4.07.26-.86,2.08-1.99,2.99-1.82,6.45,1.22,9.79-2.3,13.3-7.08,9.31-12.67,19.18-24.94,28.95-37.54-1.61-2.17-3.4-4.14-4.61-6.41-.68-1.28-.42-3.06-.58-4.62,1.47.48,3.19.63,4.33,1.52,1.39,1.09,2.29,2.8,3.83,4.81,1.4-1.61,2.42-3.31,3.9-4.35,1.35-.94,3.19-1.17,4.82-1.71-.23,1.58-.06,3.38-.78,4.68-1.11,1.98-2.85,3.61-4.6,5.73Z"/><path class="cls-3" d="m57.12,95.73c5.59-7.28,10.45-13.6,15.87-20.65,5.14,6.76,10.05,13.21,15.71,20.65h-31.58Z"/></svg>