<?xml version="1.0" encoding="utf-8"?>
<!-- Generator: Adobe Illustrator 28.0.0, SVG Export Plug-In . SVG Version: 6.00 Build 0)  -->
<svg version="1.1" id="Laag_1" xmlns="http://www.w3.org/2000/svg" xmlns:xlink="http://www.w3.org/1999/xlink" x="0px" y="0px"
	 viewBox="0 0 228.79 248.86" style="enable-background:new 0 0 228.79 248.86;" xml:space="preserve">
<style type="text/css">
	.st0{fill:#C652E2;}
	.st1{fill:#FBFAFA;}
	.st2{fill:#0E0E0E;}
</style>
<g>
	<g>
		<path class="st0" d="M59.24,111.95c0-20.33-0.01-40.66,0-60.98c0-6.23,5.62-11.8,11.91-11.8c40.66-0.01,81.32-0.01,121.98,0
			c5.96,0,11.66,5.65,11.66,11.55c0.01,40.82,0.01,81.64,0,122.47c0,5.89-5.73,11.51-11.67,11.51c-40.83,0-81.65,0.01-122.48,0
			c-5.57,0-11.39-5.73-11.39-11.26C59.23,152.94,59.24,132.45,59.24,111.95z"/>
		<path class="st1" d="M73.01,170.83c0-39.34,0-78.29,0-117.86c1.64-0.09,3.22-0.24,4.81-0.24c35.83-0.01,71.66-0.02,107.5-0.01
			c5.89,0,5.91,0.03,5.91,5.74c0.01,36-0.03,72,0.06,108c0.01,3.23-0.54,4.77-4.28,4.76c-37.16-0.12-74.33-0.08-111.49-0.09
			C74.87,171.14,74.22,170.99,73.01,170.83z"/>
		<path class="st2" d="M135.3,90.12c7.35,9.55,14.68,19.1,22.03,28.64c3.03,3.93,6.37,7.66,9.07,11.81
			c2.26,3.46,4.82,5.09,9.02,4.48c2.36-0.34,5.2-0.69,5.13,3.38c-0.07,3.83-2.56,3.56-5.15,3.56c-28.78,0.01-57.56,0.06-86.34,0.03
			c-1.59,0-3.54-0.14-4.64-1.05c-0.84-0.69-1.03-2.83-0.66-4.07c0.26-0.86,2.08-1.99,2.99-1.82c6.45,1.22,9.79-2.3,13.3-7.08
			c9.31-12.67,19.18-24.94,28.95-37.54c-1.61-2.17-3.4-4.14-4.61-6.41c-0.68-1.28-0.42-3.06-0.58-4.62
			c1.47,0.48,3.19,0.63,4.33,1.52c1.39,1.09,2.29,2.8,3.83,4.81c1.4-1.61,2.42-3.31,3.9-4.35c1.35-0.94,3.19-1.17,4.82-1.71
			c-0.23,1.58-0.06,3.38-0.78,4.68C138.79,86.37,137.05,88,135.3,90.12z"/>
		<path class="st1" d="M116.35,134.89c5.59-7.28,10.45-13.6,15.87-20.65c5.14,6.76,10.05,13.21,15.71,20.65
			C136.8,134.89,127.42,134.89,116.35,134.89z"/>
	</g>
</g>
</svg>
