<svg id="Laag_1" data-name="Laag 1" xmlns="http://www.w3.org/2000/svg" viewBox="0 0 145.55 145.54"><defs><style>.cls-1{fill:#898989;}.cls-2{fill:#fbfafa;}.cls-3{fill:#0e0e0e;}</style></defs><path class="cls-1" d="M0,72.79v-61A12.25,12.25,0,0,1,11.91,0h122c6,0,11.65,5.65,11.66,11.54q0,61.25,0,122.47c0,5.89-5.73,11.52-11.67,11.52H11.4C5.84,145.54,0,139.81,0,134.28Q0,103.53,0,72.79Z"/><path class="cls-2" d="M13.78,131.67V13.82c1.64-.09,3.22-.25,4.81-.25H126.08c5.89,0,5.91,0,5.91,5.74,0,36,0,72,.07,108,0,3.23-.54,4.77-4.29,4.76C90.61,132,53.44,132,16.28,132,15.63,132,15,131.82,13.78,131.67Z"/><path class="cls-3" d="M76.06,51q11,14.32,22,28.63c3,3.94,6.37,7.66,9.07,11.81,2.26,3.46,4.82,5.09,9,4.48,2.37-.34,5.21-.69,5.14,3.38-.07,3.84-2.56,3.56-5.15,3.56q-43.17,0-86.34,0c-1.59,0-3.54-.14-4.64-1-.84-.69-1-2.83-.67-4.07a3.6,3.6,0,0,1,3-1.82c6.45,1.22,9.79-2.3,13.3-7.07,9.31-12.68,19.18-24.94,29-37.54a55.14,55.14,0,0,1-4.61-6.41c-.68-1.28-.42-3.06-.58-4.62,1.46.48,3.19.63,4.33,1.52,1.39,1.09,2.29,2.81,3.83,4.81,1.39-1.61,2.42-3.31,3.9-4.35s3.19-1.17,4.82-1.72c-.23,1.58,0,3.39-.78,4.68C79.56,47.2,77.82,48.83,76.06,51Z"/><path class="cls-2" d="M57.12,95.73,73,75.08,88.7,95.73Z"/></svg>