<?xml version="1.0" encoding="utf-8"?>
<!-- Generator: Adobe Illustrator 15.1.0, SVG Export Plug-In . SVG Version: 6.00 Build 0)  -->
<!DOCTYPE svg PUBLIC "-//W3C//DTD SVG 1.1//EN" "http://www.w3.org/Graphics/SVG/1.1/DTD/svg11.dtd">
<svg version="1.1" id="Laag_1" xmlns="http://www.w3.org/2000/svg" xmlns:xlink="http://www.w3.org/1999/xlink" x="0px" y="0px"
	 width="228.794px" height="248.864px" viewBox="0 0 228.794 248.864" enable-background="new 0 0 228.794 248.864"
	 xml:space="preserve">
<g>
	<defs>
		<rect id="SVGID_1_" width="228.794" height="248.864"/>
	</defs>
	<clipPath id="SVGID_2_">
		<use xlink:href="#SVGID_1_"  overflow="visible"/>
	</clipPath>
	<path clip-path="url(#SVGID_2_)" fill="#FFD700" d="M59.238,111.953c-0.002-20.328-0.006-40.657,0.001-60.985
		c0.002-6.225,5.618-11.799,11.91-11.801c40.658-0.007,81.316-0.008,121.975,0.002c5.958,0.001,11.656,5.652,11.657,11.547
		c0.009,40.823,0.011,81.646,0.002,122.468c-0.001,5.891-5.731,11.515-11.668,11.515c-40.825,0.002-81.65,0.005-122.475,0.001
		c-5.567,0-11.388-5.729-11.393-11.261C59.229,152.943,59.24,132.448,59.238,111.953"/>
	<path clip-path="url(#SVGID_2_)" fill="#FBFAFA" d="M73.013,170.834V52.979c1.638-0.087,3.223-0.243,4.808-0.244
		c35.831-0.014,71.663-0.015,107.495-0.006c5.893,0.002,5.913,0.029,5.914,5.745c0.007,35.998-0.03,71.997,0.062,107.995
		c0.009,3.23-0.539,4.774-4.281,4.763c-37.164-0.121-74.33-0.079-111.495-0.095C74.868,171.137,74.222,170.985,73.013,170.834"/>
	<path clip-path="url(#SVGID_2_)" fill="#0E0E0E" d="M135.298,90.12c7.347,9.55,14.681,19.1,22.033,28.636
		c3.031,3.932,6.37,7.66,9.071,11.805c2.258,3.465,4.821,5.089,9.018,4.484c2.362-0.342,5.205-0.69,5.133,3.379
		c-0.067,3.833-2.555,3.561-5.147,3.562c-28.78,0.008-57.562,0.062-86.341,0.035c-1.588-0.002-3.542-0.142-4.642-1.047
		c-0.836-0.689-1.033-2.83-0.665-4.072c0.257-0.864,2.085-1.988,2.988-1.818c6.448,1.221,9.789-2.3,13.299-7.075
		c9.314-12.672,19.177-24.941,28.952-37.538c-1.608-2.174-3.398-4.14-4.613-6.412c-0.683-1.277-0.417-3.061-0.579-4.616
		c1.467,0.479,3.191,0.628,4.332,1.521c1.39,1.089,2.286,2.804,3.826,4.807c1.396-1.612,2.419-3.311,3.903-4.352
		c1.346-0.944,3.195-1.171,4.822-1.714c-0.23,1.578-0.057,3.383-0.785,4.681C138.79,86.366,137.054,87.996,135.298,90.12"/>
	<path clip-path="url(#SVGID_2_)" fill="#FBFAFA" d="M116.354,134.891c5.595-7.28,10.454-13.604,15.867-20.646
		c5.145,6.761,10.054,13.215,15.709,20.646H116.354z"/>
</g>
</svg>
