<?xml version="1.0" encoding="utf-8"?>
<!-- Generator: Adobe Illustrator 28.0.0, SVG Export Plug-In . SVG Version: 6.00 Build 0)  -->
<svg version="1.1" id="Laag_1" xmlns="http://www.w3.org/2000/svg" xmlns:xlink="http://www.w3.org/1999/xlink" x="0px" y="0px"
	 viewBox="0 0 401.62 365.27" style="enable-background:new 0 0 401.62 365.27;" xml:space="preserve">
<style type="text/css">
	.st0{fill:#C652E2;}
	.st1{fill:#090909;}
	.st2{fill:#45659C;}
</style>
<g>
	<g>
		<path class="st0" d="M212.31,88.04c20.32,0,40.64,0,60.96,0c6.27,0,11.95,5.59,11.95,11.71c-0.01,40.36,0,80.71,0,121.07
			c0,7.04-5.35,12.51-12.25,12.51c-40.55,0.01-81.09,0.01-121.64,0c-6.26,0-11.82-5.6-11.82-11.91c-0.01-40.69,0-81.38-0.01-122.07
			c0-5.42,5.94-11.36,11.36-11.36c20.49,0,40.97,0,61.46,0C212.31,88.01,212.31,88.03,212.31,88.04z M153.52,101.18
			c-0.23,1.27-0.44,1.91-0.44,2.55c-0.02,37.5,0.01,74.99-0.08,112.49c-0.01,3.61,1.67,3.89,4.63,3.88
			c36.35-0.09,72.7-0.13,109.05,0.05c4.05,0.02,5.07-1.12,5.06-5.02c-0.13-36.16-0.15-72.32,0.02-108.49
			c0.02-4.41-1.21-5.58-5.62-5.56c-35.27,0.18-70.54,0.1-105.81,0.1C158.19,101.18,156.05,101.18,153.52,101.18z"/>
		<path class="st1" d="M251.29,154.26c1.09-0.41,2.19-0.82,3.28-1.22c0.88,0.32,1.75,0.64,2.63,0.96l0.29,0.29
			c-0.04,11.13-0.08,22.26-0.11,33.39c-0.01,4.86-0.41,5.13-5.53,3.67c-0.84-7.39-0.84-7.38-8.85-7.38c-8.64,0-17.27,0-25.91,0
			c-12.12,0-24.25,0.17-36.37-0.09c-4.69-0.1-7.56,0.74-6.66,6.2c0.07,0.44-0.2,0.93-0.41,1.8c-2.07,0.14-4.17,0.29-6.27,0.44
			c-0.14-7.62-0.36-15.24-0.41-22.87c-0.07-10.8,0.06-21.61-0.07-32.41c-0.04-2.92,0.85-4.33,3.88-4.36
			c3.02-0.03,4.2,1.47,4.11,4.28c-0.15,4.81-0.15,9.63-0.5,14.42c-0.81,11.07,4.2,18.03,14.98,20.5c1.29,0.39,2.58,1.11,3.86,1.1
			c5.59-0.04,11.17-0.38,16.76-0.44c12.26-0.13,24.52-0.24,36.77-0.2c3.72,0.01,5.08-1.56,4.89-5.13
			C251.41,162.9,251.39,158.58,251.29,154.26z"/>
		<path class="st1" d="M244.38,161.77c0.7,0.52,1.41,1.03,2.11,1.55c0.58,1.32,1.15,2.64,2.07,4.75c-2.74,0.3-4.94,0.75-7.14,0.76
			c-12.5,0.07-24.99,0.09-37.49-0.03c-1.83-0.02-3.66-0.85-5.48-1.31c0.67-1.59,1.33-3.17,2-4.76c0.35-0.27,0.71-0.54,1.06-0.8
			c2.22-0.9,4.44-1.8,6.66-2.69c1.07-0.16,2.13-0.32,3.2-0.48c4.75-0.27,9.5-0.7,14.26-0.74c3.25-0.03,6.51,0.48,9.76,0.74
			c1.06,0.16,2.12,0.32,3.19,0.48c0.73,0.35,1.46,0.7,2.19,1.06c0.5,0.22,1,0.44,1.5,0.65C242.96,161.22,243.67,161.5,244.38,161.77
			z"/>
		<path class="st1" d="M190.41,154.3c1,1.82,2,3.64,3.01,5.46c3.19,5.79,2.14,8.28-4.12,9.78c-9.8-4.79-13.86-12-11.43-20.28
			l0.1-0.03c1.5-0.01,3-0.03,4.5-0.04c0.75,0.34,1.51,0.67,2.26,1.01c0.47,0.25,0.95,0.5,1.42,0.76c0.98,0.67,1.96,1.34,2.93,2
			C189.53,153.41,189.97,153.85,190.41,154.3z"/>
		<path class="st2" d="M208.16,159.23c-2.22,0.9-4.44,1.8-6.66,2.69C203.72,161.03,205.94,160.13,208.16,159.23z"/>
		<path class="st2" d="M189.08,152.97c-0.98-0.67-1.96-1.34-2.93-2C187.13,151.63,188.11,152.3,189.08,152.97z"/>
		<path class="st2" d="M184.73,150.2c-0.75-0.34-1.51-0.67-2.26-1.01C183.22,149.53,183.98,149.87,184.73,150.2z"/>
		<path class="st2" d="M257.19,154c-0.88-0.32-1.75-0.64-2.63-0.96C255.44,153.36,256.31,153.68,257.19,154z"/>
		<path class="st2" d="M240.75,160.28c-0.73-0.35-1.46-0.7-2.19-1.06C239.3,159.58,240.02,159.93,240.75,160.28z"/>
		<path class="st2" d="M244.38,161.77c-0.71-0.28-1.42-0.56-2.13-0.83C242.96,161.22,243.67,161.5,244.38,161.77z"/>
		<path class="st2" d="M177.97,149.23c0,0-0.1,0.03-0.1,0.03C177.9,149.25,177.93,149.24,177.97,149.23z"/>
	</g>
</g>
</svg>
