<?xml version="1.0" encoding="utf-8"?>
<!-- Generator: Adobe Illustrator 15.1.0, SVG Export Plug-In . SVG Version: 6.00 Build 0)  -->
<!DOCTYPE svg PUBLIC "-//W3C//DTD SVG 1.1//EN" "http://www.w3.org/Graphics/SVG/1.1/DTD/svg11.dtd">
<svg version="1.1" id="Laag_1" xmlns="http://www.w3.org/2000/svg" xmlns:xlink="http://www.w3.org/1999/xlink" x="0px" y="0px"
	 width="401.617px" height="365.268px" viewBox="0 0 401.617 365.268" enable-background="new 0 0 401.617 365.268"
	 xml:space="preserve">
<g>
	<defs>
		<rect id="SVGID_1_" width="401.617" height="365.268"/>
	</defs>
	<clipPath id="SVGID_2_">
		<use xlink:href="#SVGID_1_"  overflow="visible"/>
	</clipPath>
	<path clip-path="url(#SVGID_2_)" fill="#FFD700" d="M212.312,88.04c20.318,0,40.638,0.002,60.957,0
		c6.266-0.001,11.947,5.585,11.947,11.71c-0.007,40.356-0.002,80.711-0.005,121.067c-0.001,7.042-5.346,12.513-12.25,12.514
		c-40.546,0.005-81.093,0.005-121.639,0c-6.26-0.001-11.82-5.599-11.821-11.908c-0.007-40.689-0.002-81.378-0.006-122.067
		c0-5.415,5.941-11.358,11.359-11.357c20.486,0.003,40.971,0.001,61.458,0.001C212.312,88.013,212.312,88.027,212.312,88.04
		 M153.522,101.181c-0.226,1.269-0.439,1.909-0.439,2.549c-0.021,37.496,0.012,74.991-0.084,112.486
		c-0.009,3.607,1.668,3.891,4.626,3.884c36.351-0.087,72.702-0.129,109.052,0.045c4.047,0.021,5.069-1.116,5.057-5.015
		c-0.128-36.161-0.15-72.324,0.02-108.485c0.021-4.415-1.21-5.584-5.617-5.562c-35.271,0.181-70.542,0.099-105.814,0.098
		C158.186,101.181,156.051,101.181,153.522,101.181"/>
	<path clip-path="url(#SVGID_2_)" fill="#090909" d="M251.286,154.261c1.093-0.408,2.185-0.815,3.278-1.223
		c0.875,0.32,1.75,0.64,2.625,0.96l0.286,0.291c-0.036,11.13-0.075,22.26-0.108,33.391c-0.015,4.862-0.414,5.132-5.532,3.665
		c-0.835-7.385-0.835-7.384-8.846-7.384c-8.636,0.001-17.271,0-25.906-0.002c-12.123-0.001-24.249,0.171-36.366-0.094
		c-4.692-0.104-7.564,0.738-6.663,6.198c0.071,0.436-0.202,0.928-0.413,1.802c-2.068,0.144-4.171,0.291-6.274,0.438
		c-0.143-7.621-0.361-15.244-0.411-22.867c-0.071-10.804,0.064-21.61-0.072-32.412c-0.037-2.921,0.845-4.33,3.878-4.359
		c3.016-0.029,4.2,1.466,4.112,4.284c-0.151,4.808-0.151,9.628-0.502,14.422c-0.811,11.071,4.197,18.031,14.976,20.499
		c1.288,0.386,2.577,1.108,3.862,1.099c5.588-0.036,11.174-0.376,16.762-0.437c12.257-0.135,24.517-0.243,36.773-0.197
		c3.718,0.015,5.08-1.564,4.891-5.129C251.407,162.896,251.393,158.577,251.286,154.261"/>
	<path clip-path="url(#SVGID_2_)" fill="#090909" d="M244.376,161.772c0.704,0.516,1.408,1.032,2.111,1.548
		c0.576,1.322,1.151,2.643,2.07,4.751c-2.736,0.303-4.937,0.746-7.14,0.758c-12.496,0.069-24.993,0.089-37.489-0.027
		c-1.831-0.017-3.654-0.854-5.481-1.311c0.665-1.587,1.33-3.174,1.995-4.761c0.353-0.268,0.705-0.536,1.058-0.804l6.656-2.695
		l3.202-0.482c4.752-0.266,9.504-0.698,14.259-0.743c3.251-0.031,6.508,0.477,9.762,0.743c1.063,0.159,2.124,0.318,3.187,0.477
		c0.729,0.353,1.46,0.705,2.189,1.058c0.498,0.218,0.996,0.436,1.495,0.655C242.958,161.217,243.667,161.495,244.376,161.772"/>
	<path clip-path="url(#SVGID_2_)" fill="#090909" d="M190.414,154.297c1.002,1.82,2.004,3.641,3.006,5.461
		c3.185,5.793,2.135,8.284-4.125,9.784c-9.801-4.789-13.864-11.997-11.429-20.278l0.1-0.032c1.501-0.013,3.003-0.025,4.504-0.038
		c0.754,0.337,1.507,0.674,2.26,1.011c0.474,0.252,0.947,0.504,1.42,0.756c0.977,0.668,1.955,1.336,2.933,2.004
		C189.527,153.409,189.97,153.853,190.414,154.297"/>
	<path clip-path="url(#SVGID_2_)" fill="#45659C" d="M208.156,159.232l-6.656,2.694L208.156,159.232z"/>
	<path clip-path="url(#SVGID_2_)" fill="#45659C" d="M189.083,152.965c-0.978-0.668-1.955-1.336-2.933-2.004
		C187.128,151.629,188.105,152.297,189.083,152.965"/>
	<path clip-path="url(#SVGID_2_)" fill="#45659C" d="M184.73,150.205c-0.753-0.337-1.507-0.674-2.26-1.011
		C183.224,149.531,183.978,149.868,184.73,150.205"/>
	<path clip-path="url(#SVGID_2_)" fill="#45659C" d="M257.189,153.998c-0.875-0.32-1.75-0.64-2.625-0.96
		C255.439,153.358,256.314,153.678,257.189,153.998"/>
	<path clip-path="url(#SVGID_2_)" fill="#45659C" d="M240.755,160.284c-0.73-0.352-1.459-0.705-2.189-1.057
		C239.296,159.58,240.024,159.932,240.755,160.284"/>
	<path clip-path="url(#SVGID_2_)" fill="#45659C" d="M244.376,161.772c-0.709-0.278-1.418-0.556-2.126-0.833
		C242.958,161.217,243.667,161.495,244.376,161.772"/>
	<path clip-path="url(#SVGID_2_)" fill="#45659C" d="M177.966,149.232l-0.1,0.032C177.899,149.253,177.933,149.243,177.966,149.232"
		/>
</g>
</svg>
