<svg id="Laag_1" data-name="Laag 1" xmlns="http://www.w3.org/2000/svg" viewBox="0 0 145.72 145.34"><defs><style>.cls-1{fill:#898989;}.cls-2{fill:#090909;}.cls-3{fill:#45659c;}</style></defs><path class="cls-1" d="M72.82,0h61c6.27,0,11.95,5.59,11.95,11.71q0,60.54,0,121.07a12.22,12.22,0,0,1-12.25,12.51H11.83A12.23,12.23,0,0,1,0,133.42q0-61,0-122.06C0,5.94,5.94,0,11.36,0H72.82ZM14,13.18a18,18,0,0,0-.44,2.55q0,56.25-.09,112.49c0,3.61,1.67,3.89,4.63,3.88,36.35-.08,72.7-.13,109.05.05,4,0,5.07-1.12,5.06-5q-.19-54.24,0-108.48c0-4.42-1.21-5.59-5.62-5.56-35.27.18-70.54.09-105.81.09Z"/><path class="cls-2" d="M111.79,66.26,115.07,65l2.62,1,.29.29q-.06,16.69-.11,33.39c0,4.86-.41,5.13-5.53,3.67C111.5,96,111.5,96,103.49,96H77.59c-12.13,0-24.25.17-36.37-.09-4.69-.11-7.56.73-6.66,6.19a6.07,6.07,0,0,1-.42,1.81l-6.27.43c-.14-7.62-.36-15.24-.41-22.86-.07-10.81.06-21.61-.07-32.41,0-2.93.84-4.33,3.88-4.36s4.2,1.46,4.11,4.28c-.15,4.81-.15,9.63-.5,14.42-.81,11.07,4.19,18,15,20.5,1.29.39,2.58,1.11,3.86,1.1,5.59,0,11.18-.38,16.77-.44,12.25-.13,24.51-.24,36.77-.19,3.72,0,5.08-1.57,4.89-5.13C111.91,74.9,111.9,70.58,111.79,66.26Z"/><path class="cls-2" d="M104.88,73.77,107,75.32l2.07,4.75a70.46,70.46,0,0,1-7.14.76c-12.49.07-25,.09-37.49,0-1.83,0-3.65-.85-5.48-1.31l2-4.76,1-.8,6.66-2.7,3.2-.48c4.75-.27,9.51-.7,14.26-.74,3.25,0,6.51.47,9.76.74l3.19.48,2.19,1.06,1.49.65Z"/><path class="cls-2" d="M50.92,66.3l3,5.46c3.19,5.79,2.14,8.28-4.12,9.78-9.8-4.78-13.86-12-11.43-20.27l.1,0,4.5,0,2.26,1,1.42.75,2.94,2Z"/><path class="cls-3" d="M68.66,71.23,62,73.93Z"/><path class="cls-3" d="M49.59,65l-2.94-2Z"/><path class="cls-3" d="M45.23,62.21,43,61.2Z"/><path class="cls-3" d="M117.69,66l-2.62-1Z"/><path class="cls-3" d="M101.26,72.29l-2.19-1.06Z"/><path class="cls-3" d="M104.88,73.77l-2.13-.83Z"/><path class="cls-3" d="M38.47,61.23l-.1,0Z"/></svg>