<?xml version="1.0" encoding="UTF-8"?><svg id="Laag_1" xmlns="http://www.w3.org/2000/svg" viewBox="0 0 145.72 145.34"><defs><style>.cls-1{fill:#c652e2;}.cls-1,.cls-2,.cls-3{stroke-width:0px;}.cls-2{fill:#090909;}.cls-3{fill:#45659c;}</style></defs><path class="cls-1" d="m72.82.04c20.32,0,40.64,0,60.96,0,6.27,0,11.95,5.59,11.95,11.71,0,40.36,0,80.71,0,121.07,0,7.04-5.35,12.51-12.25,12.51-40.55,0-81.09,0-121.64,0-6.26,0-11.82-5.6-11.82-11.91C0,92.74,0,52.05,0,11.36,0,5.94,5.94,0,11.36,0c20.49,0,40.97,0,61.46,0,0,.01,0,.03,0,.04ZM14.03,13.18c-.23,1.27-.44,1.91-.44,2.55-.02,37.5.01,74.99-.08,112.49,0,3.61,1.67,3.89,4.63,3.88,36.35-.09,72.7-.13,109.05.05,4.05.02,5.07-1.12,5.06-5.02-.13-36.16-.15-72.32.02-108.49.02-4.41-1.21-5.58-5.62-5.56-35.27.18-70.54.1-105.81.1-2.14,0-4.27,0-6.8,0Z"/><path class="cls-2" d="m111.79,66.26c1.09-.41,2.19-.82,3.28-1.22.88.32,1.75.64,2.63.96l.29.29c-.04,11.13-.08,22.26-.11,33.39-.01,4.86-.41,5.13-5.53,3.67q-.84-7.39-8.85-7.38c-8.64,0-17.27,0-25.91,0-12.12,0-24.25.17-36.37-.09-4.69-.1-7.56.74-6.66,6.2.07.44-.2.93-.41,1.8-2.07.14-4.17.29-6.27.44-.14-7.62-.36-15.24-.41-22.87-.07-10.8.06-21.61-.07-32.41-.04-2.92.85-4.33,3.88-4.36,3.02-.03,4.2,1.47,4.11,4.28-.15,4.81-.15,9.63-.5,14.42-.81,11.07,4.2,18.03,14.98,20.5,1.29.39,2.58,1.11,3.86,1.1,5.59-.04,11.17-.38,16.76-.44,12.26-.13,24.52-.24,36.77-.2,3.72.01,5.08-1.56,4.89-5.13-.23-4.31-.24-8.63-.35-12.95Z"/><path class="cls-2" d="m104.88,73.77c.7.52,1.41,1.03,2.11,1.55.58,1.32,1.15,2.64,2.07,4.75-2.74.3-4.94.75-7.14.76-12.5.07-24.99.09-37.49-.03-1.83-.02-3.66-.85-5.48-1.31l2-4.76c.35-.27.71-.54,1.06-.8,2.22-.9,4.44-1.8,6.66-2.69,1.07-.16,2.13-.32,3.2-.48,4.75-.27,9.5-.7,14.26-.74,3.25-.03,6.51.48,9.76.74,1.06.16,2.12.32,3.19.48.73.35,1.46.7,2.19,1.06.5.22,1,.44,1.5.66.71.28,1.42.56,2.13.83Z"/><path class="cls-2" d="m50.92,66.3c1,1.82,2,3.64,3.01,5.46,3.19,5.79,2.14,8.28-4.12,9.78-9.8-4.79-13.86-12-11.43-20.28l.1-.03c1.5-.01,3-.03,4.5-.04.75.34,1.51.67,2.26,1.01.47.25.95.5,1.42.76.98.67,1.96,1.34,2.93,2l1.33,1.33Z"/><path class="cls-3" d="m68.66,71.23c-2.22.9-4.44,1.8-6.66,2.69,2.22-.9,4.44-1.8,6.66-2.69Z"/><path class="cls-3" d="m49.59,64.97c-.98-.67-1.96-1.34-2.93-2,.98.67,1.96,1.34,2.93,2Z"/><path class="cls-3" d="m45.23,62.21c-.75-.34-1.51-.67-2.26-1.01.75.34,1.51.67,2.26,1.01Z"/><path class="cls-3" d="m117.69,66c-.88-.32-1.75-.64-2.63-.96.88.32,1.75.64,2.63.96Z"/><path class="cls-3" d="m101.26,72.29c-.73-.35-1.46-.7-2.19-1.06.73.35,1.46.7,2.19,1.06Z"/><path class="cls-3" d="m104.88,73.77c-.71-.28-1.42-.56-2.13-.83.71.28,1.42.56,2.13.83Z"/><path class="cls-3" d="m38.47,61.23s-.1.03-.1.03c.03-.01.07-.02.1-.03Z"/></svg>