<?xml version="1.0" encoding="UTF-8"?><svg id="Laag_1" xmlns="http://www.w3.org/2000/svg" viewBox="0 0 145.53 145.44"><defs><style>.cls-1{fill:#f9f9fa;}.cls-1,.cls-2,.cls-3{stroke-width:0px;}.cls-2{fill:#c652e2;}.cls-3{fill:#131313;}</style></defs><path class="cls-2" d="m72.78,0c20.49,0,40.98,0,61.47,0,5,0,11.27,6.05,11.27,11,.02,41.15.02,82.29,0,123.44,0,4.81-6.37,10.99-11.23,10.99-40.98,0-81.96,0-122.94,0-5.04,0-11.31-5.98-11.31-11.01C-.01,93.11,0,51.8.03,10.48.03,5.94,6.57,0,11.31,0,31.8,0,52.29,0,72.78,0Zm-.51,131.75c18.33,0,36.66-.08,54.98.07,3.71.03,4.84-1.15,4.82-4.88-.12-36.32-.12-72.65,0-108.97.01-3.78-1.22-4.8-4.88-4.79-36.32.1-72.65.08-108.97-.04-3.65-.01-4.78,1.02-4.76,4.82.15,36.16.16,72.31,0,108.47-.02,4.14,1.15,5.45,5.32,5.4,17.83-.2,35.66-.08,53.48-.08Z"/><path class="cls-1" d="m72.26,131.75c-17.83,0-35.66-.11-53.48.08-4.18.05-5.34-1.26-5.32-5.4.15-36.16.15-72.31,0-108.47-.02-3.8,1.12-4.83,4.76-4.82,36.32.12,72.65.14,108.97.04,3.67,0,4.9,1.01,4.88,4.79-.12,36.32-.12,72.65,0,108.97.01,3.72-1.11,4.91-4.82,4.88-18.33-.15-36.66-.07-54.98-.07Zm28.23-100.76c-.71-.22-1.41-.43-2.12-.65-5.22,5.7-10.39,11.44-15.66,17.09-4.44,4.76-8.98,9.21-5.37,16.81.54,1.15-2.52,4.19-4.21,6.09-.51.58-2.52.76-2.98.29-3.22-3.31-7.01-5.84-6.09-11.96,1.86-12.41-4.1-22.33-15.33-26.32-10.3-3.66-18.35,2.01-17.85,12.17.62,12.72,11.54,22.9,24.67,22.98,2.11.01,4.6,1.31,6.22,2.78,2,1.8,3.27,4.4,4.87,6.67-9.9,10.63-19.39,21.06-29.17,31.21-3.64,3.78-1.02,5.95,1.41,8.16,2.53,2.29,5.31,4.27,8.12.01,2.27-3.44,4.8-6.72,7.26-10.03,5.51-7.41,11.06-14.81,17.01-22.76,1.31,1.53,2.29,2.56,3.13,3.68,6.51,8.78,12.98,17.59,19.49,26.37,4.86,6.56,5.27,6.49,11.32,1.21,3-2.62,2.89-4.57.14-7.34-8.4-8.5-16.6-17.19-24.82-25.87-1.55-1.63-2.83-3.53-3.94-4.93,2.8-5.74,6.55-8.22,12.63-7.52,1.82.21,4.42-1.98,5.88-3.73,5.76-6.85,11.29-13.89,16.67-21.03.79-1.05.32-3.04.43-4.59-.52-.14-1.03-.28-1.55-.41-5.38,6.05-10.76,12.11-16.14,18.16-.51-.41-1.01-.82-1.52-1.22.56-1.04.97-2.2,1.7-3.11,3.52-4.39,7.21-8.64,10.61-13.12.7-.92.39-2.61.54-3.94-1.2.43-2.74.53-3.53,1.35-4.63,4.86-9.08,9.88-13.58,14.85-.49-.18-.97-.36-1.46-.54.39-1.21.47-2.67,1.22-3.59,3.53-4.31,7.35-8.39,10.81-12.76.88-1.11.83-2.95,1.21-4.46Z"/><path class="cls-3" d="m100.5,30.99c-.38,1.51-.33,3.35-1.21,4.46-3.46,4.36-7.28,8.44-10.81,12.76-.75.92-.83,2.38-1.22,3.59.49.18.97.36,1.46.54,4.51-4.97,8.96-9.99,13.58-14.85.78-.82,2.33-.92,3.53-1.35-.15,1.33.16,3.02-.54,3.94-3.4,4.48-7.09,8.73-10.61,13.12-.73.91-1.14,2.07-1.7,3.11.51.41,1.01.82,1.52,1.22,5.38-6.05,10.76-12.11,16.14-18.16.52.14,1.03.28,1.55.41-.11,1.55.36,3.55-.43,4.59-5.38,7.15-10.92,14.19-16.67,21.03-1.47,1.74-4.06,3.94-5.88,3.73-6.07-.7-9.83,1.77-12.63,7.52,1.11,1.4,2.39,3.3,3.94,4.93,8.22,8.67,16.43,17.37,24.82,25.87,2.74,2.78,2.86,4.72-.14,7.34-6.05,5.28-6.46,5.34-11.32-1.21-6.51-8.78-12.98-17.59-19.49-26.37-.84-1.13-1.82-2.15-3.13-3.68-5.95,7.95-11.49,15.34-17.01,22.76-2.46,3.31-4.99,6.59-7.26,10.03-2.81,4.26-5.59,2.28-8.12-.01-2.43-2.2-5.05-4.38-1.41-8.16,9.78-10.15,19.28-20.58,29.17-31.21-1.6-2.27-2.87-4.86-4.87-6.67-1.63-1.47-4.11-2.76-6.22-2.78-13.12-.08-24.05-10.26-24.67-22.98-.5-10.16,7.56-15.83,17.85-12.17,11.23,3.99,17.19,13.91,15.33,26.32-.92,6.13,2.87,8.65,6.09,11.96.46.47,2.47.28,2.98-.29,1.69-1.9,4.75-4.95,4.21-6.09-3.61-7.6.93-12.05,5.37-16.81,5.27-5.65,10.45-11.39,15.66-17.09.71.22,1.41.43,2.12.65Z"/></svg>