<?xml version="1.0" encoding="utf-8"?>
<!-- Generator: Adobe Illustrator 15.1.0, SVG Export Plug-In . SVG Version: 6.00 Build 0)  -->
<!DOCTYPE svg PUBLIC "-//W3C//DTD SVG 1.1//EN" "http://www.w3.org/Graphics/SVG/1.1/DTD/svg11.dtd">
<svg version="1.1" id="Laag_1" xmlns="http://www.w3.org/2000/svg" xmlns:xlink="http://www.w3.org/1999/xlink" x="0px" y="0px"
	 width="304.056px" height="298.035px" viewBox="0 0 304.056 298.035" enable-background="new 0 0 304.056 298.035"
	 xml:space="preserve">
<g>
	<defs>
		<rect id="SVGID_1_" width="304.056" height="298.035"/>
	</defs>
	<clipPath id="SVGID_2_">
		<use xlink:href="#SVGID_1_"  overflow="visible"/>
	</clipPath>
	<path clip-path="url(#SVGID_2_)" fill="#FFD700" d="M154.099,75.776c20.49,0,40.98-0.001,61.471,0.001
		c4.999,0,11.269,6.053,11.271,11.001c0.019,41.147,0.02,82.294-0.005,123.439c-0.003,4.81-6.372,10.992-11.234,10.993
		c-40.979,0.01-81.959,0.009-122.939-0.001c-5.038-0.001-11.305-5.982-11.31-11.01c-0.041-41.314-0.038-82.627-0.003-123.94
		c0.004-4.539,6.541-10.483,11.281-10.483C113.119,75.776,133.609,75.776,154.099,75.776 M153.585,207.523
		c18.328,0,36.657-0.081,54.984,0.066c3.711,0.03,4.836-1.152,4.823-4.875c-0.123-36.322-0.124-72.646-0.001-108.969
		c0.014-3.78-1.218-4.8-4.883-4.79c-36.324,0.099-72.649,0.078-108.974-0.038c-3.647-0.012-4.78,1.017-4.764,4.816
		c0.153,36.156,0.155,72.313,0.005,108.468c-0.017,4.144,1.149,5.451,5.325,5.405C117.927,207.41,135.757,207.523,153.585,207.523"
		/>
	<path clip-path="url(#SVGID_2_)" fill="#F9F9FA" d="M153.585,207.523c-17.829,0-35.658-0.113-53.484,0.084
		c-4.176,0.046-5.342-1.261-5.325-5.405c0.15-36.156,0.148-72.313-0.005-108.468c-0.016-3.799,1.117-4.828,4.764-4.816
		c36.325,0.116,72.65,0.137,108.974,0.038c3.665-0.01,4.896,1.01,4.884,4.79c-0.123,36.323-0.122,72.646,0.001,108.969
		c0.012,3.723-1.113,4.905-4.824,4.875C190.242,207.442,171.913,207.523,153.585,207.523 M181.817,106.764
		c-0.707-0.217-1.415-0.433-2.122-0.65c-5.217,5.7-10.391,11.441-15.664,17.089c-4.441,4.756-8.98,9.206-5.372,16.81
		c0.544,1.146-2.519,4.19-4.207,6.094c-0.51,0.576-2.522,0.764-2.982,0.291c-3.215-3.31-7.006-5.84-6.09-11.965
		c1.858-12.412-4.103-22.334-15.333-26.321c-10.299-3.657-18.349,2.012-17.854,12.171c0.62,12.723,11.542,22.9,24.666,22.978
		c2.111,0.013,4.595,1.312,6.221,2.777c1.997,1.8,3.274,4.4,4.87,6.665c-9.899,10.631-19.394,21.06-29.175,31.212
		c-3.642,3.781-1.017,5.954,1.413,8.157c2.526,2.291,5.305,4.27,8.116,0.012c2.272-3.441,4.795-6.719,7.259-10.031
		c5.515-7.414,11.061-14.806,17.008-22.758c1.311,1.535,2.294,2.556,3.131,3.685c6.511,8.78,12.983,17.59,19.488,26.375
		c4.856,6.558,5.273,6.49,11.32,1.215c3.003-2.62,2.887-4.566,0.146-7.341c-8.398-8.502-16.604-17.195-24.825-25.87
		c-1.549-1.634-2.827-3.526-3.938-4.931c2.798-5.744,6.553-8.221,12.628-7.519c1.821,0.211,4.416-1.982,5.882-3.726
		c5.757-6.847,11.289-13.89,16.672-21.035c0.788-1.045,0.317-3.038,0.428-4.593c-0.515-0.138-1.031-0.276-1.546-0.414
		l-16.136,18.161c-0.506-0.408-1.011-0.816-1.518-1.224c0.56-1.042,0.975-2.2,1.701-3.107c3.518-4.392,7.214-8.644,10.611-13.125
		c0.698-0.92,0.388-2.605,0.543-3.938c-1.196,0.432-2.745,0.528-3.529,1.351c-4.627,4.856-9.076,9.881-13.585,14.85
		c-0.486-0.181-0.973-0.362-1.459-0.544c0.388-1.209,0.469-2.67,1.217-3.585c3.528-4.314,7.348-8.392,10.809-12.756
		C181.49,110.116,181.44,108.271,181.817,106.764"/>
	<path clip-path="url(#SVGID_2_)" fill="#131313" d="M181.817,106.764c-0.377,1.507-0.327,3.352-1.206,4.46
		c-3.461,4.364-7.28,8.442-10.809,12.756c-0.748,0.915-0.829,2.376-1.217,3.585c0.486,0.182,0.973,0.363,1.459,0.544
		c4.509-4.969,8.958-9.994,13.585-14.85c0.784-0.823,2.333-0.919,3.529-1.351c-0.155,1.333,0.155,3.018-0.543,3.938
		c-3.397,4.481-7.094,8.733-10.611,13.125c-0.727,0.907-1.142,2.065-1.701,3.107c0.507,0.408,1.012,0.816,1.518,1.224l16.136-18.161
		c0.515,0.138,1.031,0.276,1.546,0.414c-0.11,1.555,0.36,3.548-0.428,4.593c-5.383,7.145-10.915,14.188-16.672,21.035
		c-1.466,1.744-4.061,3.937-5.882,3.726c-6.075-0.702-9.83,1.775-12.628,7.519c1.11,1.404,2.389,3.297,3.938,4.931
		c8.221,8.675,16.427,17.368,24.825,25.87c2.741,2.774,2.857,4.721-0.146,7.341c-6.047,5.275-6.464,5.343-11.32-1.215
		c-6.505-8.785-12.978-17.595-19.488-26.375c-0.837-1.129-1.82-2.149-3.131-3.685c-5.947,7.952-11.493,15.344-17.008,22.758
		c-2.464,3.313-4.987,6.59-7.259,10.031c-2.811,4.258-5.59,2.279-8.116-0.012c-2.43-2.203-5.055-4.376-1.413-8.157
		c9.781-10.152,19.276-20.581,29.175-31.212c-1.596-2.265-2.873-4.865-4.87-6.665c-1.626-1.465-4.11-2.764-6.221-2.777
		c-13.124-0.078-24.046-10.255-24.666-22.978c-0.495-10.159,7.555-15.828,17.854-12.171c11.23,3.987,17.191,13.909,15.333,26.321
		c-0.916,6.125,2.875,8.655,6.09,11.965c0.46,0.473,2.472,0.285,2.982-0.291c1.688-1.904,4.751-4.948,4.207-6.094
		c-3.608-7.604,0.931-12.054,5.372-16.81c5.273-5.648,10.447-11.389,15.664-17.089C180.402,106.331,181.11,106.547,181.817,106.764"
		/>
</g>
</svg>
