<svg id="Laag_1" data-name="Laag 1" xmlns="http://www.w3.org/2000/svg" viewBox="0 0 145.53 145.44"><defs><style>.cls-1{fill:#898989;}.cls-2{fill:#f9f9fa;}.cls-3{fill:#131313;}</style></defs><path class="cls-1" d="M72.78,0h61.47c5,0,11.27,6.05,11.27,11q0,61.72,0,123.44c0,4.81-6.37,11-11.23,11H11.34c-5,0-11.3-6-11.31-11Q0,72.46,0,10.48C0,5.94,6.57,0,11.31,0Zm-.52,131.75c18.33,0,36.66-.08,55,.06,3.71,0,4.83-1.15,4.82-4.87q-.18-54.48,0-109c0-3.78-1.22-4.8-4.88-4.79q-54.49.15-109,0c-3.64,0-4.78,1-4.76,4.82q.23,54.23,0,108.47c0,4.14,1.14,5.45,5.32,5.4C36.61,131.63,54.44,131.75,72.26,131.75Z"/><path class="cls-2" d="M72.26,131.75c-17.82,0-35.65-.12-53.48.08-4.18,0-5.34-1.26-5.32-5.4q.22-54.24,0-108.47c0-3.8,1.12-4.83,4.76-4.82q54.5.18,109,0c3.66,0,4.89,1,4.88,4.79q-.18,54.48,0,109c0,3.72-1.11,4.9-4.82,4.87C108.92,131.67,90.59,131.75,72.26,131.75ZM100.5,31l-2.13-.65C93.16,36,88,41.78,82.71,47.43c-4.44,4.75-9,9.2-5.37,16.81.54,1.14-2.52,4.19-4.21,6.09-.51.58-2.52.77-3,.29-3.22-3.31-7-5.84-6.09-12C65.92,46.25,60,36.32,48.73,32.34c-10.3-3.66-18.35,2-17.86,12.17.62,12.72,11.54,22.9,24.67,23a10.45,10.45,0,0,1,6.22,2.77c2,1.8,3.27,4.4,4.87,6.67C56.73,87.56,47.23,98,37.45,108.14c-3.64,3.78-1,6,1.42,8.16s5.3,4.27,8.11,0c2.27-3.44,4.8-6.72,7.26-10,5.52-7.42,11.06-14.81,17-22.76,1.31,1.53,2.29,2.55,3.13,3.68,6.51,8.78,13,17.59,19.49,26.38,4.86,6.56,5.27,6.49,11.32,1.21,3-2.62,2.89-4.56.14-7.34C96.94,99,88.73,90.26,80.51,81.58,79,80,77.68,78.06,76.57,76.65c2.8-5.74,6.55-8.22,12.63-7.52,1.82.21,4.42-2,5.88-3.72,5.76-6.85,11.29-13.89,16.67-21,.79-1,.32-3,.43-4.59l-1.54-.41L94.5,57.53,93,56.3a20.69,20.69,0,0,1,1.7-3.11c3.52-4.39,7.22-8.64,10.62-13.12.69-.92.38-2.6.54-3.94-1.2.43-2.75.53-3.53,1.35-4.63,4.86-9.08,9.88-13.59,14.85l-1.45-.54c.38-1.21.46-2.67,1.21-3.59,3.53-4.31,7.35-8.39,10.81-12.75C100.17,34.34,100.12,32.5,100.5,31Z"/><path class="cls-3" d="M100.5,31c-.38,1.51-.33,3.35-1.21,4.46C95.83,39.81,92,43.89,88.48,48.2c-.75.92-.83,2.38-1.21,3.59l1.45.54c4.51-5,9-10,13.59-14.85.78-.82,2.33-.92,3.53-1.35-.16,1.34.15,3-.54,3.94-3.4,4.48-7.1,8.73-10.62,13.12A20.69,20.69,0,0,0,93,56.3l1.52,1.23,16.14-18.16,1.54.41c-.11,1.55.36,3.55-.43,4.59-5.38,7.15-10.91,14.19-16.67,21-1.46,1.74-4.06,3.93-5.88,3.72-6.08-.7-9.83,1.78-12.63,7.52,1.11,1.41,2.39,3.3,3.94,4.93,8.22,8.68,16.43,17.37,24.82,25.87,2.75,2.78,2.86,4.72-.14,7.34-6,5.28-6.46,5.35-11.32-1.21-6.51-8.79-13-17.6-19.49-26.38-.84-1.13-1.82-2.15-3.13-3.68-6,8-11.49,15.34-17,22.76-2.46,3.31-5,6.59-7.26,10-2.81,4.26-5.59,2.28-8.11,0s-5.06-4.38-1.42-8.16C47.23,98,56.73,87.56,66.63,76.93c-1.6-2.27-2.87-4.87-4.87-6.67a10.45,10.45,0,0,0-6.22-2.77c-13.13-.08-24-10.26-24.67-23-.49-10.16,7.56-15.83,17.86-12.17,11.23,4,17.19,13.91,15.33,26.32-.92,6.12,2.87,8.65,6.09,12,.46.48,2.47.29,3-.29,1.69-1.9,4.75-5,4.21-6.09-3.61-7.61.93-12.06,5.37-16.81C88,41.78,93.16,36,98.37,30.34Z"/></svg>