<?xml version="1.0" encoding="utf-8"?>
<!-- Generator: Adobe Illustrator 28.0.0, SVG Export Plug-In . SVG Version: 6.00 Build 0)  -->
<svg version="1.1" id="Laag_1" xmlns="http://www.w3.org/2000/svg" xmlns:xlink="http://www.w3.org/1999/xlink" x="0px" y="0px"
	 viewBox="0 0 304.06 298.03" style="enable-background:new 0 0 304.06 298.03;" xml:space="preserve">
<style type="text/css">
	.st0{fill:#C652E2;}
	.st1{fill:#F9F9FA;}
	.st2{fill:#131313;}
</style>
<g>
	<g>
		<path class="st0" d="M154.1,75.78c20.49,0,40.98,0,61.47,0c5,0,11.27,6.05,11.27,11c0.02,41.15,0.02,82.29,0,123.44
			c0,4.81-6.37,10.99-11.23,10.99c-40.98,0.01-81.96,0.01-122.94,0c-5.04,0-11.31-5.98-11.31-11.01c-0.04-41.31-0.04-82.63,0-123.94
			c0-4.54,6.54-10.48,11.28-10.48C113.12,75.78,133.61,75.78,154.1,75.78z M153.59,207.52c18.33,0,36.66-0.08,54.98,0.07
			c3.71,0.03,4.84-1.15,4.82-4.88c-0.12-36.32-0.12-72.65,0-108.97c0.01-3.78-1.22-4.8-4.88-4.79c-36.32,0.1-72.65,0.08-108.97-0.04
			c-3.65-0.01-4.78,1.02-4.76,4.82c0.15,36.16,0.16,72.31,0.01,108.47c-0.02,4.14,1.15,5.45,5.32,5.4
			C117.93,207.41,135.76,207.52,153.59,207.52z"/>
		<path class="st1" d="M153.59,207.52c-17.83,0-35.66-0.11-53.48,0.08c-4.18,0.05-5.34-1.26-5.32-5.4
			c0.15-36.16,0.15-72.31-0.01-108.47c-0.02-3.8,1.12-4.83,4.76-4.82c36.32,0.12,72.65,0.14,108.97,0.04
			c3.67-0.01,4.9,1.01,4.88,4.79c-0.12,36.32-0.12,72.65,0,108.97c0.01,3.72-1.11,4.91-4.82,4.88
			C190.24,207.44,171.91,207.52,153.59,207.52z M181.82,106.76c-0.71-0.22-1.41-0.43-2.12-0.65c-5.22,5.7-10.39,11.44-15.66,17.09
			c-4.44,4.76-8.98,9.21-5.37,16.81c0.54,1.15-2.52,4.19-4.21,6.09c-0.51,0.58-2.52,0.76-2.98,0.29c-3.22-3.31-7.01-5.84-6.09-11.96
			c1.86-12.41-4.1-22.33-15.33-26.32c-10.3-3.66-18.35,2.01-17.85,12.17c0.62,12.72,11.54,22.9,24.67,22.98
			c2.11,0.01,4.6,1.31,6.22,2.78c2,1.8,3.27,4.4,4.87,6.67c-9.9,10.63-19.39,21.06-29.17,31.21c-3.64,3.78-1.02,5.95,1.41,8.16
			c2.53,2.29,5.31,4.27,8.12,0.01c2.27-3.44,4.8-6.72,7.26-10.03c5.51-7.41,11.06-14.81,17.01-22.76c1.31,1.53,2.29,2.56,3.13,3.68
			c6.51,8.78,12.98,17.59,19.49,26.37c4.86,6.56,5.27,6.49,11.32,1.21c3-2.62,2.89-4.57,0.14-7.34c-8.4-8.5-16.6-17.19-24.82-25.87
			c-1.55-1.63-2.83-3.53-3.94-4.93c2.8-5.74,6.55-8.22,12.63-7.52c1.82,0.21,4.42-1.98,5.88-3.73c5.76-6.85,11.29-13.89,16.67-21.04
			c0.79-1.05,0.32-3.04,0.43-4.59c-0.52-0.14-1.03-0.28-1.55-0.41c-5.38,6.05-10.76,12.11-16.14,18.16
			c-0.51-0.41-1.01-0.82-1.52-1.22c0.56-1.04,0.97-2.2,1.7-3.11c3.52-4.39,7.21-8.64,10.61-13.12c0.7-0.92,0.39-2.61,0.54-3.94
			c-1.2,0.43-2.74,0.53-3.53,1.35c-4.63,4.86-9.08,9.88-13.58,14.85c-0.49-0.18-0.97-0.36-1.46-0.54c0.39-1.21,0.47-2.67,1.22-3.59
			c3.53-4.31,7.35-8.39,10.81-12.76C181.49,110.12,181.44,108.27,181.82,106.76z"/>
		<path class="st2" d="M181.82,106.76c-0.38,1.51-0.33,3.35-1.21,4.46c-3.46,4.36-7.28,8.44-10.81,12.76
			c-0.75,0.92-0.83,2.38-1.22,3.59c0.49,0.18,0.97,0.36,1.46,0.54c4.51-4.97,8.96-9.99,13.58-14.85c0.78-0.82,2.33-0.92,3.53-1.35
			c-0.15,1.33,0.16,3.02-0.54,3.94c-3.4,4.48-7.09,8.73-10.61,13.12c-0.73,0.91-1.14,2.07-1.7,3.11c0.51,0.41,1.01,0.82,1.52,1.22
			c5.38-6.05,10.76-12.11,16.14-18.16c0.52,0.14,1.03,0.28,1.55,0.41c-0.11,1.55,0.36,3.55-0.43,4.59
			c-5.38,7.15-10.92,14.19-16.67,21.04c-1.47,1.74-4.06,3.94-5.88,3.73c-6.07-0.7-9.83,1.77-12.63,7.52c1.11,1.4,2.39,3.3,3.94,4.93
			c8.22,8.67,16.43,17.37,24.82,25.87c2.74,2.78,2.86,4.72-0.14,7.34c-6.05,5.28-6.46,5.34-11.32-1.21
			c-6.51-8.78-12.98-17.59-19.49-26.37c-0.84-1.13-1.82-2.15-3.13-3.68c-5.95,7.95-11.49,15.34-17.01,22.76
			c-2.46,3.31-4.99,6.59-7.26,10.03c-2.81,4.26-5.59,2.28-8.12-0.01c-2.43-2.2-5.05-4.38-1.41-8.16
			c9.78-10.15,19.28-20.58,29.17-31.21c-1.6-2.27-2.87-4.86-4.87-6.67c-1.63-1.47-4.11-2.76-6.22-2.78
			c-13.12-0.08-24.05-10.26-24.67-22.98c-0.5-10.16,7.56-15.83,17.85-12.17c11.23,3.99,17.19,13.91,15.33,26.32
			c-0.92,6.13,2.87,8.65,6.09,11.96c0.46,0.47,2.47,0.29,2.98-0.29c1.69-1.9,4.75-4.95,4.21-6.09c-3.61-7.6,0.93-12.05,5.37-16.81
			c5.27-5.65,10.45-11.39,15.66-17.09C180.4,106.33,181.11,106.55,181.82,106.76z"/>
	</g>
</g>
</svg>
