<?xml version="1.0" encoding="UTF-8"?>
<svg id="Laag_1" data-name="Laag 1" xmlns="http://www.w3.org/2000/svg" viewBox="0 0 595.28 805.69">
  <defs>
    <style>
      .cls-1 {
        fill: #eee41e;
      }

      .cls-2 {
        fill: #1d1d1b;
        font-family: MyriadPro-Regular, 'Myriad Pro';
        font-size: 475.99px;
      }
    </style>
  </defs>
  <path class="cls-1" d="M585.89,420.3c-94.94-52.79-187.16-147.22-274.1-280.65-1.61-2.48-3.73-4.45-6.14-5.81-.99-13.45-2.92-29.02-6.17-46.93,17.42-12.73,41.03-29.63,62.61-29.62,24.4,0,33.83,32.38,63.18,20.32,20.56-8.25,39.12-22.42,57.08-35.71-39.06,15.93-59.83,33.56-82.51-5.76C374.4-8.04,320.75-2.35,279.33,5.17c-.4-1.34-.8-2.66-1.21-4.01l-12.12,4.34c17.03,55.52,24.28,96.94,26.69,127.03-3.68,1.19-6.94,3.65-9.21,7.13C196.57,273.06,104.35,367.49,9.38,420.3c-7.1,3.96-10.78,12.64-8.9,21.03s8.83,14.29,16.83,14.29h26.34l15.13,317.76c.71,14.91,12.11,26.61,25.93,26.61H510.56c13.82,0,25.22-11.7,25.93-26.61l15.13-317.77h26.34c7.99,0,14.94-5.91,16.82-14.29,1.89-8.39-1.79-17.08-8.9-21.03Zm-448.5,52.6h107.74v271h-94.82l-12.92-271Zm212.76,0h107.74l-12.92,271h-94.82V472.9h0Zm130.36-56.1h-122.83c-5.18-39.27-14.7-91.18-28.47-154.96-1.01-4.68-2.01-9.27-3-13.77,29,56.82,80.23,135.01,154.29,168.73Zm-212.13-168.2c-.88,4.08-1.79,8.29-2.71,12.62-9.66,45.34-21.6,105.8-28.16,155.58H114.28c75.61-40.38,125.67-114.17,154.09-168.2Z"/>
  <text class="cls-2" transform="translate(150.28 686.69) scale(1.11 1)"><tspan x="0" y="0">B</tspan></text>
</svg>