<?xml version="1.0" encoding="UTF-8"?>
<svg id="Laag_1" data-name="Laag 1" xmlns="http://www.w3.org/2000/svg" viewBox="0 0 576 814.98">
  <defs>
    <style>
      .cls-1 {
        fill: #be1622;
      }

      .cls-2 {
        font-family: MyriadPro-Regular, 'Myriad Pro';
        font-size: 475.99px;
      }
    </style>
  </defs>
  <path class="cls-1" d="M566.92,420.3c-91.87-52.79-181.1-147.22-265.22-280.65-1.42-2.26-3.26-4.1-5.34-5.44-.37-.24-.62-.63-.65-1.08-.96-13.07-2.77-28.12-5.77-45.35-.09-.53,.11-1.06,.53-1.38,16.78-12.66,39.3-29.12,59.91-29.11,23.61,0,32.73,32.38,61.14,20.32,16.38-6.79,31.45-17.6,45.97-28.63,1.3-.99,.13-3.08-1.35-2.41-31.13,14.16-49.43,25.03-69.23-10.43C362.52-7.6,311.38-2.46,271.47,4.95c-.68,.13-1.33-.29-1.53-.97-.14-.47-.27-.94-.41-1.41-.22-.76-1.03-1.18-1.75-.91l-9.18,3.4c-.68,.25-1.05,1.02-.83,1.73,16.02,54.23,22.97,94.92,25.36,124.68,.05,.6-.28,1.18-.83,1.4-3.18,1.28-5.99,3.61-8,6.79C190.2,273.06,100.97,367.49,9.08,420.3c-6.87,3.96-10.43,12.64-8.61,21.03s8.55,14.29,16.28,14.29h24.19c.72,0,1.32,.59,1.35,1.33l14.58,316.43c.69,14.91,11.72,26.61,25.09,26.61H494.03c13.37,0,24.41-11.7,25.09-26.61l14.58-316.43c.03-.75,.63-1.33,1.35-1.33h24.19c7.73,0,14.46-5.91,16.28-14.29,1.83-8.39-1.73-17.08-8.61-21.03Zm-226.76,323.6H146.67c-.7,0-1.28-.55-1.35-1.27l-29.99-323.27c-.33-.62-.5-1.36-.55-2.15-.02-.27,.06-.53,.2-.75-.64-.58-.67-1.75,.23-2.27,70.59-40.88,144.88-162.38,145.86-162.59,0,0,.03,0,.03,0,0,0,5.08-.79,5.79-.27,.23,.17,.49,.28,.77,.29,11.77,.45,23.43,1.75,35.23,.34,3.8-.46,8.03-1.43,11.45-.03,.99,.4,76.43,127.21,145.19,162.23,.95,.48,.95,1.68,.32,2.29,.12,.23,.18,.5,.18,.77,.28,.28,.44,.69,.4,1.13l-29.77,324.3c-.07,.72-.65,1.27-1.35,1.27h-.06c.72,0,1.32-.59,1.35-1.33"/>
  <text class="cls-2" transform="translate(117 695.98) scale(1.11 1)"><tspan x="0" y="0">C</tspan></text>
</svg>