<?xml version="1.0" encoding="UTF-8"?>
<svg id="Laag_1" data-name="Laag 1" xmlns="http://www.w3.org/2000/svg" viewBox="0 0 591 810.48">
  <defs>
    <style>
      .cls-1 {
        fill: #e5221e;
      }

      .cls-2 {
        fill: #1d1d1b;
        font-family: MyriadPro-Regular, 'Myriad Pro';
        font-size: 475.99px;
      }
    </style>
  </defs>
  <path class="cls-1" d="M581.68,420.3c-94.26-52.79-185.82-147.22-272.13-280.65-1.6-2.48-3.7-4.45-6.1-5.81-.98-13.45-2.9-29.02-6.13-46.93,17.29-12.73,40.73-29.63,62.16-29.62,24.22,0,33.58,32.38,62.73,20.32,20.41-8.25,38.84-22.42,56.67-35.71-38.78,15.93-59.4,33.56-81.92-5.76C371.72-8.04,318.44-2.35,277.32,5.17c-.4-1.34-.79-2.66-1.21-4.01l-12.03,4.34c16.91,55.52,24.11,96.94,26.5,127.03-3.65,1.19-6.89,3.65-9.14,7.13C195.16,273.06,103.6,367.49,9.32,420.3c-7.05,3.96-10.7,12.64-8.83,21.03s8.77,14.29,16.71,14.29h26.15l15.03,317.76c.71,14.91,12.02,26.61,25.75,26.61H506.89c13.72,0,25.04-11.7,25.74-26.61l15.03-317.77h26.15c7.94,0,14.84-5.91,16.7-14.29,1.87-8.39-1.78-17.08-8.83-21.03Zm-445.28,52.6h106.96v271h-94.14l-12.83-271Zm211.23,0h106.97l-12.83,271h-94.14V472.9h0Zm129.42-56.1h-121.94c-5.14-39.27-14.59-91.18-28.26-154.96-1-4.68-1.99-9.27-2.98-13.77,28.79,56.82,79.65,135.01,153.18,168.73Zm-210.61-168.2c-.88,4.08-1.78,8.29-2.69,12.62-9.59,45.34-21.44,105.8-27.96,155.58H113.46c75.07-40.38,124.76-114.17,152.98-168.2Z"/>
  <text class="cls-2" transform="translate(122 691.48) scale(1.11 1)"><tspan x="0" y="0">C</tspan></text>
</svg>