<?xml version="1.0" encoding="UTF-8"?>
<svg id="Laag_1" data-name="Laag 1" xmlns="http://www.w3.org/2000/svg" xmlns:xlink="http://www.w3.org/1999/xlink" viewBox="0 0 634.35 800">
  <defs>
    <style>
      .cls-1 {
        fill: #1d1d1b;
        font-family: MyriadPro-Regular, 'Myriad Pro';
        font-size: 475.99px;
      }

      .cls-2 {
        fill: url(#Wit_zwart);
      }
    </style>
    <linearGradient id="Wit_zwart" data-name="Wit, zwart" x1="31.72" y1="400" x2="612.67" y2="400" gradientUnits="userSpaceOnUse">
      <stop offset="0" stop-color="#fff"/>
      <stop offset="1" stop-color="#1d1d1b"/>
    </linearGradient>
  </defs>
  <path class="cls-2" d="M603.51,420.3c-92.66-52.79-182.66-147.22-267.5-280.65-1.57-2.48-3.64-4.45-5.99-5.81-.97-13.45-2.85-29.02-6.02-46.93,17-12.73,40.04-29.63,61.11-29.62,23.81,0,33.01,32.38,61.66,20.32,20.06-8.25,38.18-22.42,55.71-35.71-38.12,15.93-58.39,33.56-80.53-5.76C397.12-8.04,344.75-2.35,304.33,5.17c-.39-1.34-.78-2.66-1.18-4.01l-11.83,4.34c16.62,55.52,23.7,96.94,26.05,127.03-3.59,1.19-6.77,3.65-8.99,7.13C223.56,273.06,133.56,367.49,40.88,420.3c-6.93,3.96-10.52,12.64-8.68,21.03s8.62,14.29,16.42,14.29h25.7l14.77,317.76c.7,14.91,11.82,26.61,25.31,26.61h415.59c13.49,0,24.62-11.7,25.31-26.61l14.77-317.77h25.7c7.8,0,14.58-5.91,16.42-14.29,1.84-8.39-1.75-17.08-8.68-21.03Zm-437.71,52.6h105.15v271h-92.54l-12.61-271Zm207.64,0h105.15l-12.61,271h-92.54V472.9h0Zm127.22-56.1h-119.87c-5.05-39.27-14.35-91.18-27.78-154.96-.98-4.68-1.96-9.27-2.93-13.77,28.31,56.82,78.3,135.01,150.58,168.73Zm-207.03-168.2c-.86,4.08-1.75,8.29-2.65,12.62-9.43,45.34-21.08,105.8-27.48,155.58h-120.26c73.79-40.38,122.64-114.17,150.38-168.2Z"/>
  <text class="cls-1" transform="translate(0 665.69) scale(1.11 1)"><tspan x="0" y="0">NB</tspan></text>
</svg>