<?xml version="1.0" encoding="UTF-8"?>
<svg id="Laag_1" data-name="Laag 1" xmlns="http://www.w3.org/2000/svg" version="1.1" viewBox="0 0 107.2 106.2">
  <defs>
    <style>
      .cls-1 {
        fill: #8b6638;
      }

      .cls-1, .cls-2, .cls-3, .cls-4, .cls-5, .cls-6 {
        stroke-width: 0px;
      }

      .cls-2 {
        fill: #000;
      }

      .cls-3 {
        fill: #664623;
      }

      .cls-4 {
        fill: #e52421;
      }

      .cls-5 {
        fill: #fff;
      }

      .cls-6 {
        fill: #f3e600;
      }
    </style>
  </defs>
  <path class="cls-2" d="M96.3,54.5c0,23.5-19.1,42.7-42.6,42.8-23.7,0-42.9-19.2-43-42.7,0-23.8,19.3-42.8,42.6-42.9,23.7,0,43,19.2,42.9,42.8ZM12.1,54.5c0,22.7,18.4,41.2,41.1,41.4,23,.2,41.7-18.5,41.8-41.3,0-22.8-18.4-41.4-41.1-41.5-23-.2-41.7,18.5-41.7,41.4Z"/>
  <path class="cls-5" d="M12.1,54.5c0-22.9,18.7-41.6,41.7-41.4,22.7.2,41.2,18.7,41.1,41.5,0,22.8-18.7,41.5-41.8,41.3-22.6-.2-41.1-18.7-41.1-41.4ZM40.1,67.7c-.2,0-.2,0-.3,0-1.6,0-3.2,0-4.8,0-.3,0-.6,0-.9,0-3.4.5-5.8,3.9-5,7.3.7,2.8,3.1,4.7,5.9,4.7,5.2,0,10.5,0,15.7,0,7.1,0,14.2,0,21.3,0,.4,0,.7,0,1.1,0,3.3-.5,5.5-3.7,4.9-7-.5-2.9-3-5-6-5-1.6,0-3.2,0-4.9,0h-.2c.1-.1.2-.2.3-.3.9-.6,1.7-1.3,2.2-2.3.9-1.7,1.2-3.6,1.1-5.5,0-2.6-.5-5-1.4-7.4-.5-1.6-1.2-3.1-1.8-4.7-.4-1-.6-1.9-.5-3,0-1.1.3-2.2.6-3.3,0-.3,0-.5-.2-.7-.2-.2-.4-.2-.7,0-.9.4-1.8.9-2.6,1.6-2,1.5-3.3,3.5-3.7,5.9,0,.2,0,.3,0,.5,0,0,0,0-.1-.1-1.1-1.4-2-3-2.7-4.7-1.7-3.9-2.7-8.1-3.2-12.4,0-.5-.1-1.1-.2-1.6,0-.3-.3-.5-.6-.5-.3,0-.5.2-.6.5,0,0,0,.2,0,.3-.3,3.2-.9,6.4-1.9,9.5-.8,2.8-1.9,5.4-3.5,7.8-.2.4-.5.7-.8,1.2,0-.1,0-.2,0-.2-.1-1-.4-2-.9-3-.9-1.8-2.3-3.1-4-4.2-.5-.3-1-.5-1.5-.8-.4-.2-.8,0-.8.5,0,.1,0,.2,0,.4.2.9.4,1.8.6,2.6.2,1.3-.1,2.6-.6,3.9-.6,1.5-1.2,3.1-1.8,4.7-.8,2.2-1.2,4.4-1.3,6.8,0,1.7.2,3.4.8,5,.4,1.1,1,2,2,2.7.3.2.6.4.9.7Z"/>
  <path class="cls-2" d="M40.1,67.7c-.3-.3-.6-.5-.9-.7-1-.7-1.6-1.6-2-2.7-.6-1.6-.8-3.3-.8-5,0-2.3.5-4.6,1.3-6.8.5-1.6,1.2-3.1,1.8-4.7.5-1.2.8-2.5.6-3.9-.1-.9-.4-1.8-.6-2.6,0-.1,0-.2,0-.4,0-.4.4-.6.8-.5.5.2,1,.5,1.5.8,1.7,1,3.1,2.4,4,4.2.5.9.8,1.9.9,3,0,0,0,0,0,.2.3-.4.6-.8.8-1.2,1.6-2.4,2.7-5.1,3.5-7.8.9-3.1,1.5-6.3,1.9-9.5,0,0,0-.2,0-.3,0-.3.3-.5.6-.5.3,0,.6.2.6.5,0,.5.1,1.1.2,1.6.6,4.3,1.5,8.4,3.2,12.4.7,1.7,1.6,3.2,2.7,4.7,0,0,0,0,.1.1,0-.2,0-.4,0-.5.4-2.5,1.7-4.4,3.7-5.9.8-.6,1.7-1.2,2.6-1.6.2-.1.5-.1.7,0,.2.2.2.4.2.7-.3,1.1-.6,2.1-.6,3.3,0,1,.2,2,.5,3,.6,1.6,1.2,3.1,1.8,4.7.8,2.4,1.4,4.9,1.4,7.4,0,1.9-.3,3.8-1.1,5.5-.5,1-1.3,1.7-2.2,2.3-.1,0-.2.1-.3.3h.2c1.6,0,3.2,0,4.9,0,3,0,5.4,2.1,6,5,.6,3.2-1.7,6.5-4.9,7-.4,0-.7,0-1.1,0-7.1,0-14.2,0-21.3,0-5.2,0-10.5,0-15.7,0-2.9,0-5.3-1.9-5.9-4.7-.8-3.4,1.6-6.8,5-7.3.3,0,.6,0,.9,0,1.6,0,3.2,0,4.8,0,0,0,.2,0,.3,0ZM50.2,58.3c0,0,.1-.2.2-.3.8-1.4,1.4-2.9,1.8-4.5.3-1.3.6-2.6.7-4,0-.4.3-.7.6-.7.3,0,.5.2.6.6,0,.7.2,1.4.3,2,.3,1.8.8,3.6,1.6,5.3.3.5.6,1.1.9,1.7,0-.1,0-.2,0-.2.2-.7.5-1.3,1-1.8.6-.7,1.4-1.3,2.3-1.7.4-.2.7,0,.8.3,0,.2,0,.3,0,.5-.4,1.2-.3,2.3.2,3.5.5,1.2,1,2.4,1.2,3.6.3,1.3.4,2.6,0,3.9,0,.4-.2.8-.4,1.2.8,0,1.5,0,2.3,0,0,0,.1,0,.2,0,.7-.4,1.5-.8,2.2-1.3,1.1-.7,1.7-1.6,2.1-2.8.4-1.3.6-2.6.6-3.9,0-2.2-.4-4.3-1.1-6.3-.6-1.7-1.2-3.3-1.9-4.9-.6-1.4-.9-2.9-.7-4.5,0-.6.2-1.1.3-1.7,0,0,0,0,0,0-1.6.9-2.9,2.2-3.7,3.8-.6,1.3-.9,2.6-.8,4,0,.3,0,.5-.3.6-.2.1-.5,0-.7-.1-.2-.2-.4-.4-.5-.5-1.2-1.3-2.1-2.8-2.9-4.3-1.5-3.1-2.5-6.4-3.2-9.7-.1-.5-.2-1.1-.3-1.6-.2.9-.3,1.7-.5,2.6-.7,3.1-1.7,6.2-3.1,9-.9,1.7-1.8,3.2-3.2,4.5-.3.3-.5.3-.8.2-.3-.1-.3-.4-.3-.7,0-1.1,0-2.1-.5-3.2-.8-2-2.2-3.4-4-4.5,0,0,0,0-.1,0,0,0,0,.2,0,.2.5,1.9.4,3.9-.4,5.7-.4,1-.8,1.9-1.2,2.9-1,2.6-1.7,5.2-1.9,8,0,1.5,0,3,.5,4.4.4,1.1.9,2.1,2,2.8.7.4,1.3.8,2,1.3.3.2.6.2.9.2.6,0,1.2,0,1.8,0,0,0,.1,0,.2,0,0,0,0,0,0,0-.6-1.4-.6-2.9-.4-4.4.2-1.4.7-2.7,1.2-4,.2-.5.4-1,.5-1.6.2-.7,0-1.4-.2-2.1,0-.3,0-.5.2-.7.2-.2.4-.2.7,0,1,.4,1.9,1.1,2.5,2,.3.5.6,1.1.8,1.6ZM38.5,78.5c.2,0,.3,0,.4,0,11.1,0,22.2,0,33.3,0,3.1,0,5.4-3,4.6-6-.6-2.2-2.5-3.7-4.8-3.7-6.9,0-13.8,0-20.8,0-3,0-5.9,0-8.9,0-1.2,0-2.4,0-3.7,0,0,0-.1,0-.2,0,3.2,2.4,3.2,7.2,0,9.7ZM59.6,56.3c0,0,0,0,0,0,0,0,0,0,0,0-1.1.9-1.6,1.9-1.6,3.3,0,.3,0,.5-.3.6-.3.1-.5,0-.7-.1-.2-.2-.4-.4-.6-.7-1.2-1.5-1.9-3.3-2.4-5.1-.1-.4-.2-.9-.4-1.4,0,.1,0,.2,0,.3-.3,1.4-.8,2.7-1.4,4-.5,1-1,2-1.8,2.8-.2.2-.4.3-.7.2-.3-.1-.4-.4-.4-.7,0-1.3-.5-2.4-1.6-3.2,0,0,0,0-.2,0,.2,1.1-.1,2.1-.5,3.1-.2.5-.4.9-.6,1.4-.5,1.3-.8,2.7-.8,4.1,0,.9.2,1.7.6,2.4.1.2.2.3.5.3,4.5,0,9,0,13.4,0,.6,0,.8-.2,1-.7.4-1,.5-2,.4-3.1-.1-1.5-.6-2.9-1.2-4.3-.4-1-.8-2.1-.6-3.3ZM39.8,73.7c0-2.7-2.2-4.9-4.8-4.9-2.7,0-4.9,2.2-4.9,4.9,0,2.7,2.2,4.8,4.9,4.8,2.6,0,4.8-2.2,4.8-4.8Z"/>
  <path class="cls-4" d="M50.2,58.3c-.3-.5-.5-1.1-.8-1.6-.6-.9-1.5-1.6-2.5-2-.2-.1-.5-.1-.7,0-.2.2-.2.4-.2.7.2.7.4,1.4.2,2.1-.1.5-.3,1.1-.5,1.6-.5,1.3-1,2.6-1.2,4-.2,1.5-.2,3,.4,4.4,0,0,0,0,0,0,0,0-.1,0-.2,0-.6,0-1.2,0-1.8,0-.3,0-.6,0-.9-.2-.7-.4-1.4-.8-2-1.3-1-.7-1.6-1.7-2-2.8-.5-1.4-.6-2.9-.5-4.4.1-2.8.9-5.4,1.9-8,.4-1,.8-1.9,1.2-2.9.8-1.9.9-3.8.4-5.7,0,0,0-.1,0-.2,0,0,0,0,.1,0,1.8,1.1,3.2,2.5,4,4.5.4,1,.6,2.1.5,3.2,0,.3,0,.5.3.7.3.1.5,0,.8-.2,1.3-1.3,2.3-2.9,3.2-4.5,1.5-2.9,2.4-5.9,3.1-9,.2-.8.3-1.7.5-2.6.1.6.2,1.1.3,1.6.7,3.4,1.7,6.7,3.2,9.7.8,1.6,1.7,3,2.9,4.3.2.2.4.4.5.5.2.2.4.2.7.1.2-.1.3-.3.3-.6,0-1.4.2-2.7.8-4,.8-1.6,2.2-2.9,3.7-3.8,0,0,0,0,0,0,0,.6-.2,1.1-.3,1.7-.2,1.6.2,3,.7,4.5.6,1.6,1.3,3.3,1.9,4.9.7,2,1.1,4.1,1.1,6.3,0,1.3-.1,2.7-.6,3.9-.4,1.2-1,2.1-2.1,2.8-.7.4-1.4.9-2.2,1.3,0,0-.1,0-.2,0-.8,0-1.5,0-2.3,0,.1-.4.3-.8.4-1.2.3-1.3.2-2.6,0-3.9-.3-1.3-.7-2.5-1.2-3.6-.5-1.1-.6-2.3-.2-3.5,0-.2,0-.4,0-.5-.1-.3-.4-.4-.8-.3-.9.4-1.6.9-2.3,1.7-.5.5-.8,1.2-1,1.8,0,0,0,0,0,.2-.3-.6-.6-1.1-.9-1.7-.8-1.7-1.3-3.5-1.6-5.3-.1-.7-.2-1.4-.3-2,0-.4-.3-.6-.6-.6-.3,0-.6.2-.6.7-.1,1.4-.4,2.7-.7,4-.4,1.6-1,3.1-1.8,4.5,0,.1-.2.2-.2.3Z"/>
  <path class="cls-1" d="M38.5,78.5c3.2-2.5,3.2-7.3,0-9.7,0,0,.2,0,.2,0,1.2,0,2.4,0,3.7,0,3,0,5.9,0,8.9,0,6.9,0,13.8,0,20.8,0,2.3,0,4.2,1.5,4.8,3.7.7,3-1.6,6-4.6,6-11.1,0-22.2,0-33.3,0-.1,0-.2,0-.4,0ZM56.2,70.2c-3.5,0-7.1,0-10.6,0,0,0-.2,0-.3,0-.3,0-.5.2-.5.5,0,.3.1.6.4.6.1,0,.2,0,.3,0,4.4,0,8.8,0,13.2,0,2.7,0,5.5,0,8.2,0,.2,0,.4,0,.5-.2.2-.2.2-.4.1-.6-.1-.3-.3-.3-.6-.3-3.6,0-7.1,0-10.7,0Z"/>
  <path class="cls-6" d="M59.6,56.3c-.2,1.2.2,2.2.6,3.3.6,1.4,1.1,2.8,1.2,4.3.1,1.1,0,2.1-.4,3.1-.2.5-.5.7-1,.7-4.5,0-9,0-13.4,0-.2,0-.4,0-.5-.3-.5-.7-.6-1.6-.6-2.4,0-1.4.3-2.8.8-4.1.2-.5.4-1,.6-1.4.4-1,.7-2,.5-3.1,0,0,.1,0,.2,0,1,.8,1.6,1.9,1.6,3.2,0,.3,0,.5.4.7.3.1.5,0,.7-.2.8-.8,1.3-1.8,1.8-2.8.6-1.3,1.1-2.6,1.4-4,0,0,0-.2,0-.3.1.5.2,1,.4,1.4.5,1.8,1.2,3.5,2.4,5.1.2.2.4.5.6.7.2.2.4.3.7.1.3-.1.4-.3.3-.6,0-1.4.5-2.5,1.6-3.3,0,0,0,0,0,0,0,0,0,0,0,0Z"/>
  <path class="cls-3" d="M39.8,73.7c0,2.6-2.2,4.8-4.8,4.8-2.7,0-4.9-2.1-4.9-4.8,0-2.7,2.2-4.9,4.9-4.9,2.7,0,4.8,2.2,4.8,4.9Z"/>
  <path class="cls-2" d="M56.2,70.2c3.6,0,7.1,0,10.7,0,.3,0,.5,0,.6.3.1.2,0,.5-.1.6-.1.1-.3.2-.5.2-2.7,0-5.5,0-8.2,0-4.4,0-8.8,0-13.2,0-.1,0-.2,0-.3,0-.3,0-.4-.3-.4-.6,0-.3.2-.5.5-.5,0,0,.2,0,.3,0,3.5,0,7.1,0,10.6,0Z"/>
</svg>