<svg xmlns="http://www.w3.org/2000/svg" xmlns:xlink="http://www.w3.org/1999/xlink" version="1.1" width="256" height="256" viewBox="0 0 256 256" xml:space="preserve">
<g style="stroke: none; stroke-width: 0; stroke-dasharray: none; stroke-linecap: butt; stroke-linejoin: miter; stroke-miterlimit: 10; fill: none; fill-rule: nonzero; opacity: 1;" transform="translate(1.4065934065934016 1.4065934065934016) scale(2.81 2.81)">
	<path d="M 68.023 74.223 c -7.494 0 -15.448 -1.598 -23.815 -4.797 c -13.639 -5.807 -27.421 -5.801 -42.182 -0.005 c -0.765 0.297 -1.624 -0.076 -1.923 -0.839 c -0.299 -0.762 0.076 -1.624 0.839 -1.923 c 15.523 -6.094 30.038 -6.089 44.377 0.016 c 15.927 6.087 30.257 6.106 42.54 0.035 c 0.733 -0.363 1.624 -0.062 1.988 0.672 c 0.363 0.735 0.062 1.625 -0.672 1.988 C 82.628 72.606 75.559 74.223 68.023 74.223 z" style="stroke: none; stroke-width: 1; stroke-dasharray: none; stroke-linecap: butt; stroke-linejoin: miter; stroke-miterlimit: 10; fill: rgb(0,0,0); fill-rule: nonzero; opacity: 1;" transform=" matrix(1 0 0 1 0 0) " stroke-linecap="round"/>
	<path d="M 87.858 56.82 c -2.818 1.393 -5.749 2.45 -8.777 3.202 l 10.702 -17.596 c 0.279 -0.458 0.289 -1.031 0.026 -1.498 c -0.263 -0.467 -0.757 -0.756 -1.293 -0.756 H 77.88 v -3.929 v -9.491 V 17.26 c 0 -0.819 -0.664 -1.484 -1.483 -1.484 H 54.034 h -22.36 c -0.819 0 -1.484 0.664 -1.484 1.484 v 9.491 v 9.491 v 8.008 h -2.498 l -1.392 -2.93 V 22.702 c 0 -0.819 -0.664 -1.483 -1.484 -1.483 H 10.655 c -0.688 0 -1.286 0.473 -1.444 1.143 l -4.203 17.81 H 1.634 c -0.408 0 -0.798 0.168 -1.079 0.465 c -0.28 0.297 -0.425 0.696 -0.402 1.103 c 0.372 6.477 1.42 11.135 3.187 14.143 c -0.797 0.282 -1.595 0.571 -2.398 0.886 c -0.763 0.299 -1.138 1.161 -0.839 1.923 c 0.299 0.763 1.159 1.136 1.923 0.839 c 14.761 -5.797 28.543 -5.802 42.182 0.005 c 8.367 3.199 16.321 4.797 23.815 4.797 c 2.725 0 5.387 -0.219 7.987 -0.642 c 0.001 0 0.003 0.001 0.004 0.001 c 0.145 0 0.288 -0.027 0.426 -0.069 c 4.435 -0.763 8.684 -2.142 12.733 -4.143 c 0.734 -0.363 1.035 -1.253 0.672 -1.988 C 89.482 56.757 88.591 56.457 87.858 56.82 z M 73.126 40.171 c -0.477 0 -0.925 0.229 -1.203 0.616 l -2.495 3.462 h -0.925 H 55.518 v -6.524 h 19.395 v 2.445 H 73.126 z M 33.158 28.235 h 19.393 v 6.524 H 33.158 V 28.235 z M 74.913 34.759 H 55.518 v -6.524 h 19.395 V 34.759 z M 74.913 25.268 H 55.518 v -6.524 h 19.395 V 25.268 z M 33.158 18.744 h 19.393 v 6.524 H 33.158 V 18.744 z M 33.158 37.726 h 19.393 v 6.524 H 33.158 V 37.726 z M 11.829 24.185 h 11.505 v 15.986 H 8.057 L 11.829 24.185 z M 45.319 56.785 c -12.691 -5.404 -25.523 -6.019 -39.067 -1.866 c -1.568 -2.245 -2.588 -6.187 -3.031 -11.781 H 23.88 l 1.535 3.232 c 0.246 0.518 0.767 0.847 1.34 0.847 h 4.919 h 22.36 h 14.468 h 1.685 c 0.477 0 0.925 -0.229 1.203 -0.616 l 2.495 -3.462 h 11.992 L 75.127 60.816 C 66.002 62.213 56.023 60.876 45.319 56.785 z" style="stroke: none; stroke-width: 1; stroke-dasharray: none; stroke-linecap: butt; stroke-linejoin: miter; stroke-miterlimit: 10; fill: rgb(0,0,0); fill-rule: nonzero; opacity: 1;" transform=" matrix(1 0 0 1 0 0) " stroke-linecap="round"/>
	<path d="M 20.211 29.738 H 15.85 c -0.819 0 -1.483 -0.664 -1.483 -1.484 c 0 -0.819 0.664 -1.483 1.483 -1.483 h 4.361 c 0.819 0 1.483 0.664 1.483 1.483 C 21.694 29.074 21.03 29.738 20.211 29.738 z" style="stroke: none; stroke-width: 1; stroke-dasharray: none; stroke-linecap: butt; stroke-linejoin: miter; stroke-miterlimit: 10; fill: rgb(0,0,0); fill-rule: nonzero; opacity: 1;" transform=" matrix(1 0 0 1 0 0) " stroke-linecap="round"/>
	<path d="M 70.188 53.183 h -3.371 c -0.819 0 -1.483 -0.664 -1.483 -1.484 s 0.664 -1.484 1.483 -1.484 h 3.371 c 0.819 0 1.484 0.664 1.484 1.484 S 71.007 53.183 70.188 53.183 z" style="stroke: none; stroke-width: 1; stroke-dasharray: none; stroke-linecap: butt; stroke-linejoin: miter; stroke-miterlimit: 10; fill: rgb(0,0,0); fill-rule: nonzero; opacity: 1;" transform=" matrix(1 0 0 1 0 0) " stroke-linecap="round"/>
	<path d="M 60.298 53.183 h -3.371 c -0.819 0 -1.484 -0.664 -1.484 -1.484 s 0.664 -1.484 1.484 -1.484 h 3.371 c 0.819 0 1.484 0.664 1.484 1.484 S 61.117 53.183 60.298 53.183 z" style="stroke: none; stroke-width: 1; stroke-dasharray: none; stroke-linecap: butt; stroke-linejoin: miter; stroke-miterlimit: 10; fill: rgb(0,0,0); fill-rule: nonzero; opacity: 1;" transform=" matrix(1 0 0 1 0 0) " stroke-linecap="round"/>
	<path d="M 50.408 53.183 h -3.371 c -0.819 0 -1.484 -0.664 -1.484 -1.484 s 0.664 -1.484 1.484 -1.484 h 3.371 c 0.819 0 1.484 0.664 1.484 1.484 S 51.227 53.183 50.408 53.183 z" style="stroke: none; stroke-width: 1; stroke-dasharray: none; stroke-linecap: butt; stroke-linejoin: miter; stroke-miterlimit: 10; fill: rgb(0,0,0); fill-rule: nonzero; opacity: 1;" transform=" matrix(1 0 0 1 0 0) " stroke-linecap="round"/>
</g>
</svg>