<?xml version="1.0" encoding="utf-8"?>
<!-- Generator: Adobe Illustrator 25.4.1, SVG Export Plug-In . SVG Version: 6.00 Build 0)  -->
<svg version="1.1"
	 id="svg8" inkscape:export-filename="/media/juhele/data_2TB/_GRAFIKA/GHS hazard symbols/GHS06_toxic_substances.png" inkscape:export-ydpi="99.027519" inkscape:version="1.0.1 (3bc2e813f5, 2020-09-07)" xmlns:cc="http://creativecommons.org/ns#" xmlns:dc="http://purl.org/dc/elements/1.1/" xmlns:inkscape="http://www.inkscape.org/namespaces/inkscape" xmlns:rdf="http://www.w3.org/1999/02/22-rdf-syntax-ns#" xmlns:sodipodi="http://sodipodi.sourceforge.net/DTD/sodipodi-0.dtd" xmlns:svg="http://www.w3.org/2000/svg"
	 xmlns="http://www.w3.org/2000/svg" xmlns:xlink="http://www.w3.org/1999/xlink" x="0px" y="0px" viewBox="0 0 125 125"
	 style="enable-background:new 0 0 125 125;" xml:space="preserve">
<style type="text/css">
	.st0{fill:#FDB514;}
	.st1{fill:#B3B3B3;}
	.st2{fill:#C70658;}
	.st3{fill:#CCCCCC;}
	.st4{fill:#D29B2F;}
	.st5{fill:#999999;}
</style>
<path class="st0" d="M46.2,70.7C46.3,70.7,46.3,70.7,46.2,70.7C46.3,70.7,46.2,70.7,46.2,70.7C46.2,70.7,46.2,70.7,46.2,70.7z"/>
<path class="st0" d="M77.8,71.2C77.8,71.2,77.8,71.2,77.8,71.2L77.8,71.2C77.8,71.2,77.8,71.2,77.8,71.2z"/>
<polygon class="st0" points="78.4,70.9 78.3,71 78.4,70.9 "/>
<polygon class="st0" points="46,54.1 46,54.1 46,54.1 "/>
<g>
	<path class="st1" d="M78.9,70.6c-0.1,0.2-0.3,0.3-0.5,0.3c0,0,0,0,0,0h0c0,0,0,0,0,0h0c-0.1,0.2-0.3,0.3-0.6,0.3l0,0c0,0,0,0,0,0
		c-1.6-0.8-3.2-1.8-5-2.3c-4.5-1.4-9.1-2-13.9-1.5c-3.9,0.4-7.5,1.5-10.9,3.3c-0.6,0.3-1.2,0.2-1.7,0c0,0,0,0,0,0c0,0,0,0,0,0
		c-0.3,0-0.5-0.1-0.6-0.4c-1.3-0.7-1.5-1.9-1.4-3.2c2.1-2.9,5.3-3.7,8.5-4.4c7.1-1.4,14.2-1.4,21.2,0.5c2.5,0.7,5,1.6,6.6,3.9
		C80.9,68.8,80.2,69.9,78.9,70.6z"/>
	<path class="st1" d="M78.8,54.1c-0.1,0.3-0.4,0.5-0.7,0.5L78,54.7c0,0-0.1,0-0.1,0c-0.2-0.1-0.5-0.1-0.7-0.2
		c-2.2-1.5-4.7-2.4-7.3-3c-4.3-1-8.6-1.2-13-0.5c-2.5,0.4-4.9,1.1-7.2,2.2c-1.2,0.5-2.3,1.7-3.8,0.9c0,0,0,0,0,0l0,0
		c-0.5-0.1-0.8-0.4-1-0.9c-0.7-0.7-0.9-1.6-0.7-2.6c1.2-1.8,3-2.8,4.9-3.4c5.5-1.9,11.2-2.3,17-1.8c3.8,0.3,7.6,0.9,11.1,2.5
		c1.3,0.6,2.4,1.5,3.2,2.7C80.9,52.2,80.2,53.4,78.8,54.1z"/>
	<path class="st1" d="M80.8,34c-0.1,2.2-0.8,3.3-2.7,4c-0.5-0.2-1-0.3-1.4-0.6c-3.5-2.2-7.5-3-11.4-3.4c-5.2-0.4-10.4,0-15.3,2.4
		c-1,0.5-1.9,1.2-3.1,1.4c0,0,0,0,0,0c-0.1-0.3-0.3-0.4-0.6-0.3c0,0,0,0,0,0c-0.1-0.3-0.3-0.3-0.5-0.4c-1.1-0.7-1.5-1.7-1.4-2.9
		c0.9-1.3,2-2.3,3.5-3c3.4-1.5,7-2.2,10.6-2.4c6.4-0.4,12.8,0,18.9,2.3l0,0c0.5,0.5,1,0.8,1.7,0.9l0,0C79.5,32.9,80.2,33.4,80.8,34z
		"/>
</g>
<polygon class="st2" points="80.2,27.6 80.2,27.6 80.1,27.7 80.2,27.6 "/>
<g>
	<path class="st3" d="M64.5,74.2c-0.2-1-0.2-2-0.1-3.1c0.2-1.7-0.3-2.1-2-2.2c-2-0.1-2.4,0.3-2.4,2c0,1.1,0,2.2-0.1,3.3
		c-4.4,0-8.7-0.8-12.7-2.7c-0.4-0.2-0.9-0.3-1.1-0.9c0.6,0.2,1.2,0.3,1.8,0c3.4-1.8,7.1-2.8,10.9-3.3c4.8-0.5,9.3,0.1,13.9,1.5
		c1.8,0.5,3.4,1.5,5,2.3c-1.2,1.2-2.8,1.4-4.3,1.8C70.6,73.8,67.6,74.4,64.5,74.2z"/>
	<path class="st3" d="M46.8,37.8c1.2-0.1,2.1-0.9,3.1-1.4c4.9-2.3,10.1-2.8,15.3-2.4c4,0.3,8,1.1,11.4,3.4c0.4,0.3,1,0.4,1.4,0.6
		c-1.2,1-2.8,1.3-4.2,1.8c-0.4,0.2-1.1-0.1-1.3,0.7c-2.2-0.7-4.6-0.8-6.9-1.1c-0.6-0.1-1,0-1.4-0.7c-0.9-1.8-3.1-1.9-4.1-0.1
		c-0.4,0.7-0.7,0.8-1.4,0.9c-2.1,0.2-4.1,0.5-6.2,0.8c-1.5-0.5-2.9-1-4.4-1.5C47.7,38.6,47.1,38.5,46.8,37.8z"/>
	<path class="st3" d="M46,54.1c1.5,0.8,2.6-0.4,3.8-0.9c2.3-1.1,4.7-1.8,7.2-2.2c4.3-0.7,8.7-0.5,13,0.5c2.6,0.6,5.1,1.5,7.3,3
		c0.2,0.1,0.4,0.1,0.7,0.2c-1.2,1-2.7,1.3-4.2,1.8c-0.5,0.1-1,0.3-1.4,0.5c-2.2-0.4-4.5-0.7-6.8-0.9c-0.5,0-1,0-1.2-0.8
		c-0.2-1.1-1-1.4-2-1.5c-1-0.1-1.9,0.4-2.2,1.4c-0.2,0.5-0.3,0.8-0.9,0.8c-2.3,0.1-4.5,0.5-6.8,0.9c-1.6-0.6-3.2-1.2-4.7-1.8
		C47.1,54.9,46.4,54.7,46,54.1z"/>
</g>
<polygon class="st2" points="80.2,27.6 80.2,27.6 80.2,27.6 80.2,27.6 "/>
<polygon class="st0" points="46,54.1 46,54.1 46,54.1 "/>
<path class="st4" d="M46.3,70.7C46.3,70.7,46.2,70.7,46.3,70.7C46.2,70.7,46.2,70.7,46.3,70.7C46.3,70.7,46.3,70.7,46.3,70.7z"/>
<polygon class="st4" points="78.4,70.9 78.4,71 78.3,71 78.4,70.9 "/>
<path class="st4" d="M77.8,71.2C77.8,71.2,77.8,71.2,77.8,71.2L77.8,71.2C77.8,71.2,77.8,71.2,77.8,71.2z"/>
<polygon class="st4" points="78.4,70.9 78.4,71 78.3,71 78.4,70.9 "/>
<path class="st4" d="M46.2,37.5c0.3,0,0.5,0,0.6,0.3C46.6,37.9,46.4,37.8,46.2,37.5z"/>
<path class="st4" d="M45.8,37.2c0.2,0,0.5,0.1,0.5,0.4C46,37.5,45.8,37.4,45.8,37.2z"/>
<polygon class="st2" points="80.2,27.6 80.2,27.6 80.2,27.6 "/>
<polygon class="st4" points="52.3,57.1 52.2,57.1 52.2,57 "/>
<g>
	<path class="st5" d="M44.3,67.1c0-1.4,0.1-2.8-0.1-4.1c-0.1-1.6,0.6-2.6,1.8-3.5c1.9-1.3,4-2,6.2-2.4c0,0,0.1,0,0.1,0
		c0-0.1,0.1-0.1,0.2-0.1c2.2-0.4,4.5-0.8,6.8-0.9c0.6,0,0.7-0.3,0.9-0.8c0.3-1,1.2-1.5,2.2-1.4c0.9,0.1,1.8,0.4,2,1.5
		c0.1,0.7,0.6,0.7,1.2,0.8c2.3,0.1,4.5,0.4,6.8,0.9c2,0.6,4.1,1.1,6,2.2c1.6,1,2.6,2.2,2.4,4.2c-0.1,1.3-0.1,2.6-0.1,3.9
		c-1.6-2.3-4-3.2-6.6-3.9c-7-1.9-14.1-1.9-21.2-0.5C49.6,63.4,46.4,64.3,44.3,67.1z"/>
	<path class="st5" d="M44.3,50.6c0-1.6,0-3.2-0.1-4.8c0-1.4,0.9-2.2,1.9-2.9c2-1.3,4.2-1.9,6.4-2.5c2.1-0.3,4.1-0.6,6.2-0.8
		c0.7-0.1,1-0.2,1.4-0.9c1-1.8,3.1-1.7,4.1,0.1c0.4,0.7,0.8,0.7,1.4,0.7c2.3,0.2,4.6,0.3,6.9,1.1c2.2,0.4,4.2,1.1,6.1,2.3
		c1.3,0.8,2.1,2,2,3.7c-0.1,1.4,0,2.7-0.1,4.1c-0.8-1.2-1.9-2.1-3.2-2.7c-3.5-1.7-7.2-2.2-11.1-2.5c-5.8-0.5-11.5,0-17,1.8
		C47.3,47.9,45.5,48.8,44.3,50.6z"/>
	<path class="st5" d="M80.8,34c-0.6-0.6-1.2-1.2-1.6-1.9l0,0c-0.7-0.1-1.2-0.4-1.7-0.9l0,0c-6.1-2.4-12.5-2.7-18.9-2.3
		c-3.7,0.2-7.2,0.9-10.6,2.4c-1.5,0.7-2.6,1.7-3.5,3c0-1.7-0.1-3.3,0-5c0-1.3,0.7-2.2,1.8-2.8v0c2.4-1.9,5.3-2.4,8.2-3
		c0.6-0.1,1.3-0.2,2-0.2c0.2,0,0.4,0,0.6-0.1c5.8-0.7,11.5-0.6,17.2,1.1c0.2,0,0.4,0.1,0.6,0.1c1.9,0.5,3.8,1.1,5.2,2.7
		c0.2,0.1,0.3,0.3,0.4,0.5h0l0,0v0h0l-0.1,0.1l0.1-0.1l0,0c0.6,0.5,0.6,1.2,0.6,1.8C80.8,31,80.8,32.5,80.8,34z"/>
	<path class="st5" d="M59.8,86.2c0-5.2,0-10.4,0-15.6c0-1.1,0-2,2.1-1.9c2.3,0.1,2.9,0.4,2.9,2c0,2.4,0,4.8,0,7.2
		c0,8.1,0,16.2,0,24.3c0,1.3-0.4,1.8-2.3,1.7c-1.8-0.1-2.9-0.1-2.8-1.8C59.9,96.8,59.8,91.5,59.8,86.2z"/>
</g>
</svg>
