<?xml version="1.0" encoding="utf-8"?>
<!-- Generator: Adobe Illustrator 25.4.1, SVG Export Plug-In . SVG Version: 6.00 Build 0)  -->
<svg version="1.1"
	 id="svg8" xmlns:cc="http://creativecommons.org/ns#" xmlns:dc="http://purl.org/dc/elements/1.1/" xmlns:inkscape="http://www.inkscape.org/namespaces/inkscape" xmlns:rdf="http://www.w3.org/1999/02/22-rdf-syntax-ns#" xmlns:sodipodi="http://sodipodi.sourceforge.net/DTD/sodipodi-0.dtd" xmlns:svg="http://www.w3.org/2000/svg"
	 xmlns="http://www.w3.org/2000/svg" xmlns:xlink="http://www.w3.org/1999/xlink" x="0px" y="0px" viewBox="0 0 125 125"
	 style="enable-background:new 0 0 125 125;" xml:space="preserve">
<style type="text/css">
	.st0{fill:#C03A2C;}
	.st1{fill:#F5F4F3;}
</style>
<g>
	<path class="st0" d="M61.9,27c13.9,0,24.8,10.9,24.7,24.1c0,3.7-1.2,7.1-2.5,10.5c-5,12.4-11.6,23.9-19.6,34.6
		c-1.8,2.5-2.2,2.5-3.9,0.1c-8.6-11.7-15.9-24.1-20.8-37.9c-5-14,4.7-29.1,19.4-31.1C60.3,27.1,61.4,27,61.9,27z M62.4,68.4
		c9.8,0,17.7-7.8,17.8-17.7C80.3,41,72.3,33,62.6,32.9c-9.8,0-17.8,7.9-17.9,17.7C44.7,60.4,52.6,68.4,62.4,68.4z"/>
	<path class="st1" d="M62.4,68.4c-9.8,0-17.8-8-17.7-17.8c0.1-9.8,8-17.7,17.9-17.7c9.7,0,17.7,8.1,17.7,17.8
		C80.2,60.6,72.3,68.4,62.4,68.4z M62.4,55.1c2.3,0,2.3,0,2.8-2.3c0.8-3.7,1.5-7.4,2.3-11.1c0.4-2-0.6-3.8-2.4-4.5
		c-1.6-0.6-3.3-0.7-5-0.1c-2.1,0.7-3.2,2.5-2.7,4.7c0.8,3.7,1.5,7.4,2.3,11.2C60.2,55.1,60.2,55.1,62.4,55.1z M65.9,60.7
		c0-1.8-1.4-3.4-3.3-3.4c-1.9-0.1-3.5,1.4-3.5,3.3C59,62.4,60.5,64,62.4,64C64.3,64.1,65.8,62.6,65.9,60.7z"/>
	<path class="st0" d="M62.4,55.1c-2.3,0-2.3,0-2.7-2.2c-0.8-3.7-1.5-7.4-2.3-11.2c-0.4-2.2,0.6-4,2.7-4.7c1.7-0.6,3.4-0.5,5,0.1
		c1.9,0.7,2.9,2.6,2.4,4.5c-0.8,3.7-1.5,7.4-2.3,11.1C64.8,55.1,64.8,55.1,62.4,55.1z"/>
	<path class="st0" d="M65.9,60.7c0,1.9-1.6,3.4-3.5,3.4c-1.9-0.1-3.4-1.6-3.3-3.5c0.1-1.9,1.6-3.3,3.5-3.3
		C64.5,57.3,65.9,58.8,65.9,60.7z"/>
</g>
</svg>
