<?xml version="1.0" encoding="UTF-8"?>
<svg id="Laag_1" xmlns="http://www.w3.org/2000/svg" version="1.1" viewBox="0 0 1024 1024">
  <!-- Generator: Adobe Illustrator 30.2.0, SVG Export Plug-In . SVG Version: 2.1.1 Build 105)  -->
  <defs>
    <style>
      .st0 {
        fill: #fc3432;
      }
    </style>
  </defs>
  <path class="st0" d="M585.17,737.98l73.35,222.4c1.3,3.95,1.06,7.56.25,10.69-.85,3.27-6.19,3.28-10.81,4.44-54.93,13.89-108.11,24.57-165.34,20.12-91.42-7.11-175.48-38.16-251.47-88.91-83.49-63.69-148.27-149.05-180.31-249.62-14.89-46.72-17.51-93.69-21.73-144.5l237.54-.71c33.07-.1-8.6,55.63,69.87,151.46,25.12,30.68,52.92,49.14,90.16,63.84,97.28,38.4,153.8-3.44,158.49,10.79Z"/>
  <path class="st0" d="M994.58,510.87l-249,.76c-.8-72.56-36.65-139.78-89.91-181.27-61.56-47.96-137.98-60.77-213.81-39.24l-77.91-237.43c41.16-17.59,84.14-21.02,127.67-25.15,48.61-4.61,92.66,4.95,139.59,15.93,105.77,24.76,194.26,84.88,260.98,170.03,29.66,37.85,53.02,75.23,69.91,121.16,20.36,55.37,35.18,110.84,32.48,175.21Z"/>
</svg>