<svg xmlns="http://www.w3.org/2000/svg" xmlns:xlink="http://www.w3.org/1999/xlink" version="1.1" width="256" height="256" viewBox="0 0 256 256" xml:space="preserve">
<g style="stroke: none; stroke-width: 0; stroke-dasharray: none; stroke-linecap: butt; stroke-linejoin: miter; stroke-miterlimit: 10; fill: none; fill-rule: nonzero; opacity: 1;" transform="translate(1.4065934065934016 1.4065934065934016) scale(2.81 2.81)">
	<path d="M 68.621 16.781 H 21.379 c -1.995 0 -3.617 1.623 -3.617 3.618 v 28.414 c 0 1.995 1.623 3.618 3.617 3.618 h 47.242 c 1.994 0 3.617 -1.623 3.617 -3.618 V 20.399 C 72.238 18.404 70.615 16.781 68.621 16.781 z M 70.238 48.812 c 0 0.893 -0.726 1.618 -1.617 1.618 H 21.379 c -0.892 0 -1.617 -0.726 -1.617 -1.618 V 20.399 c 0 -0.892 0.726 -1.618 1.617 -1.618 h 47.242 c 0.892 0 1.617 0.726 1.617 1.618 V 48.812 z" style="stroke: none; stroke-width: 1; stroke-dasharray: none; stroke-linecap: butt; stroke-linejoin: miter; stroke-miterlimit: 10; fill: rgb(0,0,0); fill-rule: nonzero; opacity: 1;" transform=" matrix(1 0 0 1 0 0) " stroke-linecap="round"/>
	<path d="M 24.535 57.151 c -3.544 0 -6.428 2.884 -6.428 6.429 s 2.884 6.429 6.428 6.429 c 3.545 0 6.429 -2.884 6.429 -6.429 S 28.08 57.151 24.535 57.151 z M 24.535 68.009 c -2.442 0 -4.428 -1.986 -4.428 -4.429 s 1.986 -4.429 4.428 -4.429 s 4.429 1.986 4.429 4.429 S 26.977 68.009 24.535 68.009 z" style="stroke: none; stroke-width: 1; stroke-dasharray: none; stroke-linecap: butt; stroke-linejoin: miter; stroke-miterlimit: 10; fill: rgb(0,0,0); fill-rule: nonzero; opacity: 1;" transform=" matrix(1 0 0 1 0 0) " stroke-linecap="round"/>
	<path d="M 65.465 57.151 c -3.545 0 -6.429 2.884 -6.429 6.429 s 2.884 6.429 6.429 6.429 s 6.429 -2.884 6.429 -6.429 S 69.01 57.151 65.465 57.151 z M 65.465 68.009 c -2.442 0 -4.429 -1.986 -4.429 -4.429 s 1.986 -4.429 4.429 -4.429 s 4.429 1.986 4.429 4.429 S 67.907 68.009 65.465 68.009 z" style="stroke: none; stroke-width: 1; stroke-dasharray: none; stroke-linecap: butt; stroke-linejoin: miter; stroke-miterlimit: 10; fill: rgb(0,0,0); fill-rule: nonzero; opacity: 1;" transform=" matrix(1 0 0 1 0 0) " stroke-linecap="round"/>
	<path d="M 28.671 13.633 h 32.658 c 2.315 0 4.199 -1.884 4.199 -4.199 s -1.884 -4.199 -4.199 -4.199 H 28.671 c -2.315 0 -4.199 1.883 -4.199 4.199 S 26.355 13.633 28.671 13.633 z M 28.671 7.235 h 32.658 c 1.213 0 2.199 0.986 2.199 2.199 c 0 1.213 -0.986 2.199 -2.199 2.199 H 28.671 c -1.212 0 -2.199 -0.986 -2.199 -2.199 C 26.472 8.221 27.458 7.235 28.671 7.235 z" style="stroke: none; stroke-width: 1; stroke-dasharray: none; stroke-linecap: butt; stroke-linejoin: miter; stroke-miterlimit: 10; fill: rgb(0,0,0); fill-rule: nonzero; opacity: 1;" transform=" matrix(1 0 0 1 0 0) " stroke-linecap="round"/>
	<path d="M 80.965 18.85 h -0.972 V 6.73 c 0 -3.711 -3.019 -6.73 -6.729 -6.73 H 16.737 c -3.711 0 -6.73 3.019 -6.73 6.73 V 18.85 H 9.035 c -2.41 0 -4.371 1.961 -4.371 4.371 v 12.904 c 0 2.411 1.961 4.372 4.371 4.372 h 0.971 v 34.34 c 0 1.899 1.545 3.445 3.445 3.445 h 3.125 v 6.151 c 0 3.07 2.497 5.567 5.567 5.567 h 5.859 c 3.07 0 5.567 -2.497 5.567 -5.567 v -6.151 H 56.43 v 6.151 c 0 3.07 2.497 5.567 5.567 5.567 h 5.859 c 3.069 0 5.566 -2.497 5.566 -5.567 v -6.151 h 3.126 c 1.899 0 3.444 -1.546 3.444 -3.445 v -34.34 h 0.972 c 2.41 0 4.371 -1.961 4.371 -4.372 V 23.221 C 85.336 20.811 83.375 18.85 80.965 18.85 z M 9.035 38.496 c -1.308 0 -2.371 -1.064 -2.371 -2.372 V 23.221 c 0 -1.308 1.063 -2.371 2.371 -2.371 h 0.971 v 17.646 H 9.035 z M 31.57 84.433 c 0 1.967 -1.6 3.567 -3.567 3.567 h -5.859 c -1.967 0 -3.567 -1.601 -3.567 -3.567 v -6.151 H 31.57 V 84.433 z M 71.423 84.433 c 0 1.967 -1.6 3.567 -3.566 3.567 h -5.859 c -1.967 0 -3.567 -1.601 -3.567 -3.567 v -6.151 h 12.993 V 84.433 z M 77.993 74.836 c 0 0.797 -0.647 1.445 -1.444 1.445 h -4.126 H 57.43 H 32.57 H 17.577 h -4.125 c -0.797 0 -1.445 -0.648 -1.445 -1.445 v -35.34 V 19.85 V 6.73 c 0 -2.608 2.122 -4.73 4.73 -4.73 h 56.527 c 2.607 0 4.729 2.122 4.729 4.73 V 74.836 z M 83.336 36.125 c 0 1.308 -1.063 2.372 -2.371 2.372 h -0.971 V 20.85 h 0.971 c 1.308 0 2.371 1.063 2.371 2.371 V 36.125 z" style="stroke: none; stroke-width: 1; stroke-dasharray: none; stroke-linecap: butt; stroke-linejoin: miter; stroke-miterlimit: 10; fill: rgb(0,0,0); fill-rule: nonzero; opacity: 1;" transform=" matrix(1 0 0 1 0 0) " stroke-linecap="round"/>
</g>
</svg>