<?xml version="1.0" encoding="utf-8"?>
<!-- Generator: Adobe Illustrator 27.0.0, SVG Export Plug-In . SVG Version: 6.00 Build 0)  -->
<svg version="1.1" id="Laag_1" xmlns="http://www.w3.org/2000/svg" xmlns:xlink="http://www.w3.org/1999/xlink" x="0px" y="0px"
	 viewBox="0 0 576 800" style="enable-background:new 0 0 576 800;" xml:space="preserve">
<style type="text/css">
	.st0{fill:url(#SVGID_1_);}
</style>
<radialGradient id="SVGID_1_" cx="287.9972" cy="400.0042" r="348.5248" gradientTransform="matrix(1 0 0 -1 0 800)" gradientUnits="userSpaceOnUse">
	<stop  offset="0" style="stop-color:#FFFFFF"/>
	<stop  offset="1" style="stop-color:#1D1D1B"/>
</radialGradient>
<path class="st0" d="M566.92,420.3c-91.87-52.79-181.1-147.22-265.22-280.65c-1.42-2.26-3.26-4.1-5.34-5.44
	c-0.37-0.24-0.62-0.63-0.65-1.08c-0.96-13.07-2.77-28.12-5.77-45.35c-0.09-0.53,0.11-1.06,0.53-1.38
	c16.78-12.66,39.3-29.12,59.91-29.11c23.61,0,32.73,32.38,61.14,20.32c16.38-6.79,31.45-17.6,45.97-28.63
	c1.3-0.99,0.13-3.08-1.35-2.41c-31.13,14.16-49.43,25.03-69.23-10.43C362.52-7.6,311.38-2.46,271.47,4.95
	c-0.68,0.13-1.33-0.29-1.53-0.97c-0.14-0.47-0.27-0.94-0.41-1.41c-0.22-0.76-1.03-1.18-1.75-0.91l-9.18,3.4
	c-0.68,0.25-1.05,1.02-0.83,1.73c16.02,54.23,22.97,94.92,25.36,124.68c0.05,0.6-0.28,1.18-0.83,1.4c-3.18,1.28-5.99,3.61-8,6.79
	C190.2,273.06,100.97,367.49,9.08,420.3c-6.87,3.96-10.43,12.64-8.61,21.03s8.55,14.29,16.28,14.29h24.19
	c0.72,0,1.32,0.59,1.35,1.33l14.58,316.43c0.69,14.91,11.72,26.61,25.09,26.61h412.07c13.37,0,24.41-11.7,25.09-26.61l14.58-316.43
	c0.03-0.75,0.63-1.33,1.35-1.33h24.19c7.73,0,14.46-5.91,16.28-14.29C577.35,432.94,573.79,424.25,566.92,420.3L566.92,420.3z
	 M340.16,743.9H146.67c-0.7,0-1.28-0.55-1.35-1.27l-29.99-323.27c-0.33-0.62-0.5-1.36-0.55-2.15c-0.02-0.27,0.06-0.53,0.2-0.75
	c-0.64-0.58-0.67-1.75,0.23-2.27c70.59-40.88,144.88-162.38,145.86-162.59h0.03c0,0,5.08-0.79,5.79-0.27
	c0.23,0.17,0.49,0.28,0.77,0.29c11.77,0.45,23.43,1.75,35.23,0.34c3.8-0.46,8.03-1.43,11.45-0.03
	c0.99,0.4,76.43,127.21,145.19,162.23c0.95,0.48,0.95,1.68,0.32,2.29c0.12,0.23,0.18,0.5,0.18,0.77c0.28,0.28,0.44,0.69,0.4,1.13
	l-29.77,324.3c-0.07,0.72-0.65,1.27-1.35,1.27h-0.06c0.72,0,1.32-0.59,1.35-1.33"/>
</svg>
