<?xml version="1.0" encoding="utf-8"?>
<!-- Generator: Adobe Illustrator 27.0.0, SVG Export Plug-In . SVG Version: 6.00 Build 0)  -->
<svg version="1.1" id="Laag_1" xmlns="http://www.w3.org/2000/svg" xmlns:xlink="http://www.w3.org/1999/xlink" x="0px" y="0px"
	 viewBox="0 0 800 480" style="enable-background:new 0 0 800 480;" xml:space="preserve">
<style type="text/css">
	.st0{fill:#FFFFFF;}
</style>
<path d="M337.06,147.66c-9.75-22.52-19.51-45.03-29.27-67.54c-3.57-8.24-1.08-12.93,7.09-13.62c12.96-1.09,25.91-2.52,38.88-3.36
	c3.1-0.2,6.71,0.53,9.38,2.21c39.78,25.08,79.45,50.39,119.14,75.65c3.59,2.28,7.13,4.67,10.78,6.83c1.63,0.97,3.48,2.15,5.22,2.12
	c45.8-0.6,91.59-1.31,137.39-2.09c29.95-0.51,55.79,10.52,77.58,33.36c1.84,1.93,4.18,3.45,6.52,4.61
	c14.74,7.32,29.81,13.9,44.24,21.91c10.59,5.88,15.25,16.76,14.2,29.87c-0.98,12.33-6.88,21.47-17.43,25.74
	c-10.61,4.3-21.42,8.23-32.4,11.14c-29.94,7.93-60.51,9.19-91.11,8.84c-53.41-0.62-106.81-1.66-160.21-2.41
	c-2.23-0.03-4.67,0.67-6.67,1.78c-54.23,29.82-108.41,59.74-162.6,89.66c-1.3,0.72-2.56,1.55-4.2,2.54
	c22.41,27.21,50.77,36.6,82.59,37.99c-0.33-1.22-0.47-1.95-0.71-2.62c-7.05-19.88-7.38-40.15-2.18-60.47
	c1.44-5.61,4.03-11.2,7.23-15.83c6.47-9.37,16.64-9.23,23.36-0.05c2.39,3.27,4.3,7.18,5.69,11.12c4.56,12.96,5.57,26.5,4.5,40.27
	c-0.83,10.63-2.66,20.98-7.78,30.22c-2.83,5.11-6.45,9.44-12.2,10.08c-31.14,3.49-60.85-1.4-87.52-20.55
	c-9.06-6.5-16.87-15.15-25.76-23.27c-18.02,9.9-37.23,20.04-56.08,30.94c-14.94,8.64-30.47,13.89-47.35,12.53
	c-19.45-1.56-38.86-3.78-58.29-5.67c-4-0.39-7.38-1.67-8.51-6.51c-1.12-4.76,1.19-7.74,4.35-10.49
	c46.68-40.64,93.31-81.32,139.96-122c1.13-0.98,2.23-2,4.03-3.62c-1.6-0.25-2.25-0.38-2.9-0.44c-35.76-3.1-70.53-11.35-104.45-24.22
	c-1.87-0.71-4.38-0.44-6.31,0.28c-24.89,9.25-49.71,18.74-74.62,27.94c-2.6,0.96-5.73,1.17-8.44,0.64
	c-11.7-2.31-23.32-5.08-34.99-7.55c-4.09-0.87-7.55-2.42-8.18-7.61c-0.59-4.92,2.13-7.48,5.68-9.59
	c15.35-9.12,30.66-18.36,45.97-27.55c6.16-3.7,12.32-7.41,18.4-11.07c-5.09-17.45-0.18-27.9,15.4-33.57
	c1.93-0.7,3.84-1.47,5.97-2.29c-0.66-2.11-1.17-3.85-1.75-5.56C106.86,141.36,95,106.36,83.17,71.34c-2.1-6.21-1-9.08,4.43-11.56
	c9.33-4.27,18.79-8.19,27.97-12.81c5.33-2.68,9.03-1.79,13.28,2.73c30.57,32.48,61.5,64.54,91.94,97.17
	c5.89,6.31,11.36,8.74,19.8,8.26c28.17-1.59,56.41-1.75,84.63-2.42c4.38-0.1,8.77-0.01,13.8-0.01
	C338.13,150.38,337.64,148.99,337.06,147.66z M557.93,268.27c37.22,0.17,74.44,1.1,111.64,0.42c28.99-0.52,57.55-5.3,84.83-17.14
	c6.5-2.82,10.83-7.39,11.46-15.3c0.66-8.36-2.97-14.34-9.61-17.66c-14.09-7.05-28.33-13.72-42.56-20.44
	c-1.18-0.56-2.7-0.59-4.01-0.42c-9.06,1.18-18.12,2.49-27.17,3.75c-4.64,0.65-7.95-1.59-8.51-5.76c-0.56-4.17,2.04-7.2,6.8-7.9
	c5.57-0.82,11.15-1.63,17.51-2.55c-8.07-7.62-16.5-12.68-25.51-16.66c-13.22-5.85-27.02-7.33-41.1-7.08
	c-35.69,0.63-71.38,1.23-107.07,1.78c-60.18,0.93-120.35,1.8-180.53,2.73c-26.84,0.41-53.68,0.73-80.51,1.43
	c-9.8,0.26-19.6,1.34-29.37,2.4c-4.88,0.53-9.07-0.51-12.64-4.2c-17.69-18.32-35.4-36.63-53.03-55.02
	C153.26,94.66,138,78.6,122.83,62.46c-1.87-1.99-3.34-2.41-5.73-1.25c-6.8,3.3-13.71,6.3-20.86,9.55
	c4.75,13.83,9.35,27.27,13.96,40.7c7.72,22.48,15.45,44.95,23.14,67.45c2.91,8.51,0.4,13.92-7.49,16.34
	c-3.46,1.06-6.99,1.91-10.39,3.15c-5.37,1.96-7.17,6.49-4.89,12.57c4.39-3.94,8.26-2.61,12.12,1.24c3.02,3.01,3.15,5.12-0.51,7.35
	c-9.07,5.55-18.22,10.93-27.33,16.41c-14.31,8.61-28.61,17.24-43.95,26.49c7.3,1.67,13.53,3.38,19.85,4.41
	c2.97,0.49,6.33,0.37,9.15-0.68c37.08-13.78,74.1-27.77,111.13-41.71c0.77-0.29,1.52-0.66,2.35-1.85c-1.35-0.16-2.7-0.38-4.05-0.47
	c-14.37-0.93-28.73-1.83-43.1-2.76c-4.87-0.31-7.52-2.98-7.3-7.27c0.22-4.27,3.25-6.79,7.98-6.48c16.85,1.1,33.7,2.21,50.54,3.36
	c6.35,0.43,10.81,4.79,11.81,11.37c0.95,6.2-2.32,12.36-8.24,14.78c-7.12,2.92-14.34,5.51-21.63,9.2
	c9.04,2.66,18.04,5.54,27.14,7.93c24.42,6.42,49.18,10.34,74.27,11.34c1.86,0.07,4.05-0.77,5.58-1.98
	c4.61-3.65,8.96-7.71,13.44-11.56c3.69-3.17,7.14-3.07,9.51,0.18c2.48,3.42,1.87,7.36-1.93,10.68
	c-25.41,22.23-50.86,44.41-76.3,66.6c-29.03,25.32-58.07,50.63-87.1,75.95c-0.95,0.83-1.83,1.74-3.41,3.25
	c6.87,0.73,12.97,1.4,19.07,2.02c8.54,0.87,17.08,1.69,25.63,2.54c13.56,1.35,26.44-1.35,38.62-8.07
	c53.95-29.78,107.9-59.56,161.84-89.34c39.21-21.65,78.4-43.32,117.61-64.97c0.74-0.41,1.68-0.61,2.2-1.24
	c1.02-1.22,1.8-2.68,2.69-4.04c-1.37-0.73-2.76-2.15-4.1-2.1c-13,0.55-25.98,1.36-38.97,2.08c-38.81,2.15-77.62,4.32-116.43,6.44
	c-4.11,0.22-6.98-2.49-7.16-6.48c-0.18-4.01,2.21-6.91,6.53-7.18c16.72-1.03,33.44-1.87,50.16-2.81
	c34.39-1.93,68.78-3.81,103.17-5.86c6.58-0.39,12.48,0.56,16.57,6.96c5.26,8.23,3.04,19.17-4.96,24.18
	c-4.27,2.67-8.73,4.98-13.11,7.45c0.1,0.64,0.2,1.27,0.31,1.91C519.48,268.26,538.71,268.19,557.93,268.27z M442.12,131.32
	c-27.67-17.61-55.34-35.23-83.03-52.8c-1.38-0.87-3.07-1.8-4.56-1.69c-10.74,0.82-21.47,1.9-32.57,2.93
	c0.31,1.17,0.45,2.17,0.82,3.05c9.49,21.96,19.02,43.89,28.47,65.86c0.97,2.25,1.89,3.58,4.51,3.53c37.73-0.7,75.47-1.25,113.2-1.85
	c0.4-0.01,0.8-0.14,2.35-0.44C460.98,143.33,451.56,137.33,442.12,131.32z M408.85,352.49c-0.32-1.77-0.91-3.63-1.83-5.09
	c-1.44-2.27-3.28-4.24-4.96-6.34c-1.64,2.16-4.08,4.05-4.77,6.53c-1.97,7.12-3.89,14.41-4.63,21.78
	c-1.25,12.47-0.18,24.86,4.71,36.42c0.98,2.32,3.08,4.05,4.66,6.06c1.68-2.06,3.9-3.84,4.96-6.24c4.04-9.14,4.9-19.07,5.86-29.27
	C411.54,368.39,410.27,360.42,408.85,352.49z"/>
<path class="st0" d="M499.95,266.35c4.38-2.47,8.84-4.78,13.11-7.45c8-5,10.22-15.95,4.96-24.18c-4.09-6.4-9.99-7.35-16.57-6.96
	c-34.38,2.05-68.78,3.94-103.17,5.86c-16.72,0.94-33.45,1.78-50.16,2.81c-4.31,0.26-6.7,3.16-6.53,7.18
	c0.18,3.99,3.05,6.7,7.16,6.48c38.81-2.12,77.62-4.28,116.43-6.44c12.99-0.72,25.98-1.53,38.97-2.08c1.34-0.06,2.73,1.36,4.1,2.1
	c-0.88,1.36-1.67,2.81-2.69,4.04c-0.52,0.63-1.46,0.83-2.2,1.24c-39.2,21.66-78.4,43.32-117.61,64.97
	c-53.94,29.79-107.89,59.56-161.84,89.34c-12.19,6.73-25.06,9.42-38.62,8.07c-8.54-0.85-17.09-1.67-25.63-2.54
	c-6.1-0.62-12.2-1.29-19.07-2.02c1.58-1.51,2.47-2.42,3.41-3.25c29.03-25.32,58.07-50.63,87.1-75.95
	c25.44-22.19,50.89-44.38,76.3-66.6c3.8-3.32,4.42-7.26,1.93-10.68c-2.36-3.25-5.82-3.35-9.51-0.18
	c-4.48,3.85-8.83,7.91-13.44,11.56c-1.53,1.21-3.73,2.05-5.58,1.98c-25.1-1-49.85-4.93-74.27-11.34c-9.1-2.39-18.09-5.27-27.14-7.93
	c7.29-3.7,14.51-6.29,21.63-9.2c5.92-2.43,9.19-8.58,8.24-14.78c-1-6.58-5.47-10.94-11.81-11.37c-16.85-1.15-33.69-2.27-50.54-3.36
	c-4.74-0.31-7.77,2.2-7.98,6.48c-0.22,4.29,2.43,6.96,7.3,7.27c14.37,0.93,28.73,1.83,43.1,2.76c1.35,0.09,2.7,0.31,4.05,0.47
	c-0.83,1.19-1.58,1.56-2.35,1.85C154,238.43,116.98,252.43,79.9,266.2c-2.82,1.05-6.18,1.16-9.15,0.68
	c-6.32-1.03-12.55-2.74-19.85-4.41c15.34-9.24,29.64-17.88,43.95-26.49c9.11-5.48,18.26-10.87,27.33-16.41
	c3.66-2.24,3.53-4.34,0.51-7.35c-3.87-3.85-7.73-5.18-12.12-1.24c-2.27-6.08-0.48-10.61,4.89-12.57c3.41-1.25,6.93-2.09,10.39-3.15
	c7.89-2.43,10.4-7.84,7.49-16.34c-7.69-22.49-15.42-44.97-23.14-67.45c-4.61-13.43-9.22-26.87-13.96-40.7
	c7.15-3.25,14.06-6.25,20.86-9.55c2.39-1.16,3.86-0.74,5.73,1.25c15.18,16.14,30.43,32.2,45.75,48.18
	c17.63,18.4,35.34,36.7,53.03,55.02c3.57,3.69,7.76,4.74,12.64,4.2c9.77-1.07,19.57-2.14,29.37-2.4
	c26.83-0.71,53.67-1.02,80.51-1.43c60.18-0.93,120.35-1.8,180.53-2.73c35.69-0.55,71.38-1.15,107.07-1.78
	c14.08-0.25,27.88,1.23,41.1,7.08c9.01,3.99,17.43,9.04,25.51,16.66c-6.36,0.93-11.94,1.73-17.51,2.55c-4.76,0.7-7.36,3.73-6.8,7.9
	c0.56,4.17,3.87,6.41,8.51,5.76c9.06-1.26,18.11-2.57,27.17-3.75c1.31-0.17,2.83-0.14,4.01,0.42c14.22,6.72,28.46,13.39,42.56,20.44
	c6.63,3.32,10.27,9.3,9.61,17.66c-0.62,7.92-4.96,12.48-11.46,15.3c-27.28,11.85-55.84,16.62-84.83,17.14
	c-37.2,0.67-74.43-0.26-111.64-0.42c-19.22-0.09-38.45-0.02-57.67-0.02C500.16,267.62,500.06,266.99,499.95,266.35z M278.58,196.91
	c-1.64,0.03-3.76-0.28-4.82,0.69c-1.64,1.5-3.57,4.01-3.5,6.01c0.08,2.21,2,4.64,3.66,6.35c0.89,0.92,2.89,0.71,4.38,0.69
	c49.35-0.91,98.7-1.92,148.06-2.78c74.67-1.3,149.35-2.49,224.02-3.73c1.66-0.03,3.32-0.02,4.98-0.17c3.89-0.35,6.45-3.22,6.32-6.97
	c-0.12-3.42-3.27-6.66-6.79-6.67c-5.95-0.01-11.89,0.18-17.84,0.29c-56.98,0.98-113.97,1.97-197.43,3.41
	C403.59,194.66,341.09,195.77,278.58,196.91z"/>
<path class="st0" d="M471.31,149.91c-10.33-6.58-19.76-12.58-29.19-18.58c-27.67-17.61-55.34-35.23-83.03-52.8
	c-1.38-0.87-3.07-1.8-4.56-1.69c-10.74,0.82-21.47,1.9-32.57,2.93c0.31,1.17,0.45,2.17,0.82,3.05
	c9.49,21.96,19.02,43.89,28.47,65.86c0.97,2.25,1.89,3.58,4.51,3.53c37.73-0.7,75.47-1.25,113.2-1.85
	C469.37,150.34,469.76,150.2,471.31,149.91z"/>
<path class="st0" d="M412.86,376.34c-1.32-7.95-2.59-15.92-4-23.85c-0.32-1.77-0.91-3.63-1.83-5.09c-1.44-2.27-3.28-4.24-4.96-6.34
	c-1.64,2.16-4.08,4.05-4.77,6.53c-1.97,7.12-3.89,14.41-4.63,21.78c-1.25,12.47-0.18,24.86,4.71,36.42
	c0.98,2.32,3.08,4.05,4.66,6.06c1.68-2.06,3.9-3.84,4.96-6.24C411.04,396.47,411.9,386.54,412.86,376.34z"/>
<path d="M439.62,194.02c-36.03,0.64-98.53,1.76-161.04,2.9c-1.64,0.03-3.76-0.28-4.82,0.69c-1.64,1.5-3.57,4.01-3.5,6.01
	c0.08,2.21,2,4.64,3.66,6.35c0.89,0.92,2.89,0.71,4.38,0.69c49.35-0.91,98.7-1.92,148.06-2.78c74.67-1.3,149.35-2.49,224.02-3.73
	c1.66-0.03,3.32-0.02,4.98-0.17c3.89-0.35,6.45-3.22,6.32-6.97c-0.12-3.42-3.27-6.66-6.79-6.67c-5.95-0.01-11.89,0.18-17.84,0.29
	C580.06,191.59,523.08,192.58,439.62,194.02z"/>
</svg>
