<?xml version="1.0" encoding="utf-8"?>
<!-- Generator: Adobe Illustrator 25.4.1, SVG Export Plug-In . SVG Version: 6.00 Build 0)  -->
<svg version="1.1"
	 id="svg8" inkscape:export-filename="/media/juhele/data_2TB/_GRAFIKA/GHS hazard symbols/GHS06_toxic_substances.png" inkscape:export-xdpi="99.027519" inkscape:export-ydpi="99.027519" sodipodi:docname="opzet.svg" xmlns:cc="http://creativecommons.org/ns#" xmlns:dc="http://purl.org/dc/elements/1.1/" xmlns:inkscape="http://www.inkscape.org/namespaces/inkscape" xmlns:rdf="http://www.w3.org/1999/02/22-rdf-syntax-ns#" xmlns:sodipodi="http://sodipodi.sourceforge.net/DTD/sodipodi-0.dtd" xmlns:svg="http://www.w3.org/2000/svg"
	 xmlns="http://www.w3.org/2000/svg" xmlns:xlink="http://www.w3.org/1999/xlink" x="0px" y="0px" viewBox="0 0 125 125"
	 style="enable-background:new 0 0 125 125;" xml:space="preserve">
<style type="text/css">
	.st0{fill:#003196;stroke:#000000;stroke-width:1.5;stroke-miterlimit:10;}
	.st1{fill:#FFFFFF;}
</style>
<rect x="33.2" y="35.4" class="st0" width="58.3" height="58.3"/>
<path class="st1" d="M34,69.4c0-0.7,0.2-1.5,0.5-2.2c3.1-6.6,13.5-10.9,20.5-8.5c1.7,0.6,3.3,1.7,5.5,2.8c-2.3,0.8-4,1.2-5.6,1.8
	c-3.5,1.5-7.2,3.3-7.2,7.7c0,4.7,3.5,7.2,7.3,9.2c2.6,1.3,5.1,0.8,7.3-0.8c2.4-1.7,4.6-3.7,6.7-5.7c3.7-3.4,7.4-6.6,12.6-7.7
	c0.7-0.2,1.5-0.2,2.6-0.3c-1.8,2-3.4,3.5-4.6,5.2c-2.4,3.4-1,6.4,3.2,6.9c2.5,0.3,5.1,0.1,7.9,0.1c0,5,0,10,0,15.1
	c-19,0-37.7,0-56.8,0"/>
<g>
	<g>
		<path class="st1" d="M79,50.8c0.3,1.5,1.4,2.2,3.2,2.2c1.8,0,2.5-0.7,2.5-1.8c0-1.2-0.7-1.8-3.3-2.4c-4.1-1-5.1-2.5-5.1-4.5
			c0-2.6,2-4.4,5.6-4.4c4,0,5.6,2.2,5.8,4.4h-3.3c-0.2-0.9-0.7-1.9-2.6-1.9c-1.3,0-2.1,0.5-2.1,1.6c0,1.1,0.6,1.5,3.1,2.1
			c4.4,1,5.4,2.7,5.4,4.8c0,2.8-2.1,4.7-6.1,4.7c-3.9,0-5.9-1.9-6.2-4.7H79z"/>
	</g>
</g>
</svg>
