<?xml version="1.0" encoding="utf-8"?>
<!-- Generator: Adobe Illustrator 25.4.1, SVG Export Plug-In . SVG Version: 6.00 Build 0)  -->
<svg version="1.1"
	 id="svg8" xmlns:cc="http://creativecommons.org/ns#" xmlns:dc="http://purl.org/dc/elements/1.1/" xmlns:inkscape="http://www.inkscape.org/namespaces/inkscape" xmlns:rdf="http://www.w3.org/1999/02/22-rdf-syntax-ns#" xmlns:sodipodi="http://sodipodi.sourceforge.net/DTD/sodipodi-0.dtd" xmlns:svg="http://www.w3.org/2000/svg"
	 xmlns="http://www.w3.org/2000/svg" xmlns:xlink="http://www.w3.org/1999/xlink" x="0px" y="0px" viewBox="0 0 125 125"
	 style="enable-background:new 0 0 125 125;" xml:space="preserve">
<style type="text/css">
	.st0{fill:#003196;stroke:#000000;stroke-width:1.5;stroke-miterlimit:10;}
	.st1{fill:#FFFFFF;}
	.st2{fill:none;stroke:#000000;stroke-width:1.5;stroke-miterlimit:10;}
</style>
<rect x="33" y="36" class="st0" width="58" height="58"/>
<path class="st1" d="M79,50.9c0.3,1.6,1.5,2.3,3.4,2.3c1.9,0,2.7-0.7,2.7-1.9c0-1.3-0.7-1.9-3.5-2.5c-4.3-1.1-5.4-2.7-5.4-4.8
	c0-2.8,2.1-4.7,5.9-4.7c4.2,0,5.9,2.3,6.2,4.7h-3.5c-0.2-1-0.7-2-2.8-2c-1.4,0-2.2,0.5-2.2,1.7c0,1.2,0.6,1.6,3.3,2.2
	c4.7,1.1,5.7,2.9,5.7,5.1c0,3-2.2,5-6.5,5c-4.1,0-6.3-2-6.6-5H79V50.9z"/>
<path class="st1" d="M33.3,69.4c0-0.7,0.2-1.5,0.5-2.2c3.1-6.6,13.5-10.9,20.5-8.5c1.7,0.6,3.3,1.7,5.5,2.8c-2.3,0.8-4,1.2-5.6,1.8
	C50.7,64.8,47,66.6,47,71c0,4.7,3.5,7.2,7.3,9.2c2.6,1.3,5.1,0.8,7.3-0.8c2.4-1.7,4.6-3.7,6.7-5.7c3.7-3.4,7.4-6.6,12.6-7.7
	c0.7-0.2,1.5-0.2,2.6-0.3c-1.8,2-3.4,3.5-4.6,5.2c-2.4,3.4-1,6.4,3.2,6.9c2.5,0.3,5.1,0.1,7.9,0.1c0,5,0,10,0,15.1c-19,0-57,0-57,0"
	/>
<rect x="33" y="36" class="st2" width="58" height="58"/>
</svg>
