<?xml version="1.0" encoding="utf-8"?>
<!-- Generator: Adobe Illustrator 25.4.1, SVG Export Plug-In . SVG Version: 6.00 Build 0)  -->
<svg version="1.1"
	 id="svg8" xmlns:cc="http://creativecommons.org/ns#" xmlns:dc="http://purl.org/dc/elements/1.1/" xmlns:inkscape="http://www.inkscape.org/namespaces/inkscape" xmlns:rdf="http://www.w3.org/1999/02/22-rdf-syntax-ns#" xmlns:sodipodi="http://sodipodi.sourceforge.net/DTD/sodipodi-0.dtd" xmlns:svg="http://www.w3.org/2000/svg"
	 xmlns="http://www.w3.org/2000/svg" xmlns:xlink="http://www.w3.org/1999/xlink" x="0px" y="0px" viewBox="0 0 125 125"
	 style="enable-background:new 0 0 125 125;" xml:space="preserve">
<style type="text/css">
	.st0{fill:#B3B3B3;}
	.st1{fill:#CCCCCC;}
	.st2{fill:#999999;}
</style>
<sodipodi:namedview  bordercolor="#666666" borderopacity="1" gridtolerance="10" guidetolerance="10" id="namedview1412" inkscape:current-layer="svg8" inkscape:cx="61.160185" inkscape:cy="108.65148" inkscape:document-rotation="0" inkscape:pageopacity="0" inkscape:pageshadow="2" inkscape:window-height="889" inkscape:window-maximized="0" inkscape:window-width="912" inkscape:window-x="608" inkscape:window-y="0" inkscape:zoom="3.0928514" objecttolerance="10" pagecolor="#ffffff" showgrid="false" showguides="false">
	</sodipodi:namedview>
<g>
	<g>
		<path class="st0" d="M78.9,76.2c-0.1,0.2-0.3,0.3-0.5,0.3c0,0,0,0,0-0.5h0c0,0.5,0,0.5,0,1h0c-0.1-0.2-0.3-0.2-0.6-0.2l0,0
			c0,0,0,0,0,0c-1.6-0.8-3.2-1.8-5-2.3c-4.5-1.4-9.1-2-13.9-1.5c-3.9,0.4-7.5,1.5-10.9,3.3c-0.6,0.3-1.2,0.2-1.7,0c0,0,0,0,0,0
			c0,0,0,0,0,0c-0.3,0-0.5-0.1-0.6-0.4c-1.3-0.7-1.5-1.9-1.4-3.2c2.1-2.9,5.3-3.7,8.5-4.4C59.9,66.9,67,67,74,68.8
			c2.5,0.7,5,1.6,6.6,3.9C80.9,74.3,80.2,75.4,78.9,76.2z"/>
		<path class="st0" d="M78.8,59.7c-0.1,0.3-0.4,0.5-0.7,0.5L78,60.2c0,0-0.1,0-0.1,0c-0.2-0.1-0.5-0.1-0.7-0.2
			c-2.2-1.5-4.7-2.4-7.3-3c-4.3-1-8.6-1.2-13-0.5c-2.5,0.4-4.9,1.1-7.2,2.2c-1.2,0.5-2.3,1.7-3.8,0.9c0,0,0,0,0,0l0,0
			c-0.5-0.1-0.8-0.4-1-0.9c-0.7-0.7-0.9-1.6-0.7-2.6c1.2-1.8,3-2.8,4.9-3.4c5.5-1.9,11.2-2.3,17-1.8c3.8,0.3,7.6,0.9,11.1,2.5
			c1.3,0.6,2.4,1.5,3.2,2.7C80.9,57.8,80.2,58.9,78.8,59.7z"/>
		<path class="st0" d="M80.8,39.6c-0.1,2.2-0.8,3.3-2.7,4c-0.5-0.2-1-0.3-1.4-0.6c-3.5-2.2-7.5-3-11.4-3.4c-5.2-0.4-10.4,0-15.3,2.4
			c-1,0.5-1.9,1.2-3.1,1.4c0,0,0,0,0,0c-0.1-0.3-0.3-0.4-0.6-0.3c0,0,0,0,0,0c-0.1-0.3-0.3-0.3-0.5-0.4c-1.1-0.7-1.5-1.7-1.4-2.9
			c0.9-1.3,2-2.3,3.5-3c3.4-1.5,7-2.2,10.6-2.4c6.4-0.4,12.8,0,18.9,2.3l0,0c0.5,0.5,1,0.8,1.7,0.9l0,0C79.5,38.4,80.2,39,80.8,39.6
			z"/>
	</g>
	<g>
		<path class="st1" d="M64.5,79.8c-0.2-1-0.2-2-0.1-3.1c0.2-1.7-0.3-2.1-2-2.2c-2-0.1-2.4,0.3-2.4,2c0,1.1,0,2.2-0.1,3.3
			c-4.4,0-8.7-0.8-12.7-2.7c-0.4-0.2-0.9-0.3-1.1-0.9c0.6,0.2,1.2,0.3,1.8,0c3.4-1.8,7.1-2.8,10.9-3.3c4.8-0.5,9.3,0.1,13.9,1.5
			c1.8,0.5,3.4,1.5,5,2.3c-1.2,1.2-2.8,1.4-4.3,1.8C70.6,79.4,67.6,79.9,64.5,79.8z"/>
		<path class="st1" d="M46.8,43.4c1.2-0.1,2.1-0.9,3.1-1.4c4.9-2.3,10.1-2.8,15.3-2.4c4,0.3,8,1.1,11.4,3.4c0.4,0.3,1,0.4,1.4,0.6
			c-1.2,1-2.8,1.3-4.2,1.8c-0.4,0.2-1.1-0.1-1.3,0.7c-2.2-0.7-4.6-0.8-6.9-1.1c-0.6-0.1-1,0-1.4-0.7c-0.9-1.8-3.1-1.9-4.1-0.1
			c-0.4,0.7-0.7,0.8-1.4,0.9c-2.1,0.2-4.1,0.5-6.2,0.8c-1.5-0.5-2.9-1-4.4-1.5C47.7,44.1,47.1,44.1,46.8,43.4z"/>
		<path class="st1" d="M46,59.6c1.5,0.8,2.6-0.4,3.8-0.9c2.3-1.1,4.7-1.8,7.2-2.2c4.3-0.7,8.7-0.5,13,0.5c2.6,0.6,5.1,1.5,7.3,3
			c0.2,0.1,0.4,0.1,0.7,0.2c-1.2,1-2.7,1.3-4.2,1.8c-0.5,0.1-1,0.3-1.4,0.5c-2.2-0.4-4.5-0.7-6.8-0.9c-0.5,0-1,0-1.2-0.8
			c-0.2-1.1-1-1.4-2-1.5c-1-0.1-1.9,0.4-2.2,1.4c-0.2,0.5-0.3,0.8-0.9,0.8c-2.3,0.1-4.5,0.5-6.8,0.9c-1.6-0.6-3.2-1.2-4.7-1.8
			C47.1,60.5,46.4,60.2,46,59.6z"/>
	</g>
	<g>
		<path class="st2" d="M44.3,72.7c0-1.4,0.1-2.8-0.1-4.1c-0.1-1.6,0.6-2.6,1.8-3.5c1.9-1.3,4-2,6.2-2.4c0,0,0.1,0,0.1,0
			c0-0.1,0.1-0.1,0.2-0.1c2.2-0.4,4.5-0.8,6.8-0.9c0.6,0,0.7-0.3,0.9-0.8c0.3-1,1.2-1.5,2.2-1.4c0.9,0.1,1.8,0.4,2,1.5
			c0.1,0.7,0.6,0.7,1.2,0.8c2.3,0.1,4.5,0.4,6.8,0.9c2,0.6,4.1,1.1,6,2.2c1.6,1,2.6,2.2,2.4,4.2c-0.1,1.3-0.1,2.6-0.1,3.9
			c-1.6-2.3-4-3.2-6.6-3.9c-7-1.9-14.1-1.9-21.2-0.5C49.6,69,46.4,69.9,44.3,72.7z"/>
		<path class="st2" d="M44.3,56.2c0-1.6,0-3.2-0.1-4.8c0-1.4,0.9-2.2,1.9-2.9c2-1.3,4.2-1.9,6.4-2.5c2.1-0.3,4.1-0.6,6.2-0.8
			c0.7-0.1,1-0.2,1.4-0.9c1-1.8,3.1-1.7,4.1,0.1c0.4,0.7,0.8,0.7,1.4,0.7c2.3,0.2,4.6,0.3,6.9,1.1c2.2,0.4,4.2,1.1,6.1,2.3
			c1.3,0.8,2.1,2,2,3.7c-0.1,1.4,0,2.7-0.1,4.1c-0.8-1.2-1.9-2.1-3.2-2.7c-3.5-1.7-7.2-2.2-11.1-2.5c-5.8-0.5-11.5,0-17,1.8
			C47.3,53.4,45.5,54.4,44.3,56.2z"/>
		<path class="st2" d="M80.6,40.4c-0.6-0.6-1.2-1.2-1.6-1.9l0,0c-0.7-0.1-1.2-0.4-1.7-0.9l0,0c-6.1-2.4-12.5-2.7-18.9-2.3
			c-3.7,0.2-7.2,0.9-10.6,2.4c-1.5,0.7-2.6,1.7-3.5,3c0-1.7-0.1-3.3,0-5c0-1.3,0.7-2.2,1.8-2.8v0c2.4-1.9,5.3-2.4,8.2-3
			c0.6-0.1,1.3-0.2,2-0.2c0.2,0,0.4,0,0.6-0.1c5.8-0.7,11.5-0.6,17.2,1.1c0.2,0,0.4,0.1,0.6,0.1c1.9,0.5,3.8,1.1,5.2,2.7
			c0.2,0.1,0.3,0.3,0.4,0.5h0l0,0v0h0l-0.1,0.1L80,34l0,0c0.6,0.5,0.6,1.2,0.6,1.8C80.6,37.3,80.6,38.9,80.6,40.4z"/>
		<path class="st2" d="M59.8,91.7c0-5.2,0-10.4,0-15.6c0-1.1,0-2,2.1-1.9c2.3,0.1,2.9,0.4,2.9,2c0,2.4,0,4.8,0,7.2
			c0,8.1,0,16.2,0,24.3c0,1.3-0.4,1.8-2.3,1.7c-1.8-0.1-2.9-0.1-2.8-1.8C59.9,102.3,59.8,97,59.8,91.7z"/>
	</g>
</g>
</svg>
