<?xml version="1.0" encoding="UTF-8" standalone="no"?>
<svg
   xmlns:dc="http://purl.org/dc/elements/1.1/"
   xmlns:cc="http://creativecommons.org/ns#"
   xmlns:rdf="http://www.w3.org/1999/02/22-rdf-syntax-ns#"
   xmlns:svg="http://www.w3.org/2000/svg"
   xmlns="http://www.w3.org/2000/svg"
   xmlns:sodipodi="http://sodipodi.sourceforge.net/DTD/sodipodi-0.dtd"
   xmlns:inkscape="http://www.inkscape.org/namespaces/inkscape"
   height="125"
   width="125"
   xml:space="preserve"
   viewBox="0 0 125 125"
   y="0px"
   x="0px"
   sodipodi:docname="Trailerhelling.svg"
   inkscape:version="1.0.1 (3bc2e813f5, 2020-09-07)"
   inkscape:export-ydpi="99.027519"
   inkscape:export-xdpi="99.027519"
   inkscape:export-filename="/media/juhele/data_2TB/_GRAFIKA/GHS hazard symbols/GHS06_toxic_substances.png"
   id="svg8"
   version="1.1"><metadata
   id="metadata1416"><rdf:RDF><cc:Work
       rdf:about=""><dc:format>image/svg+xml</dc:format><dc:type
         rdf:resource="http://purl.org/dc/dcmitype/StillImage" /><dc:title /></cc:Work></rdf:RDF></metadata><defs
   id="defs1414" /><sodipodi:namedview
   pagecolor="#ffffff"
   bordercolor="#666666"
   borderopacity="1"
   objecttolerance="10"
   gridtolerance="10"
   guidetolerance="10"
   inkscape:pageopacity="0"
   inkscape:pageshadow="2"
   inkscape:window-width="1536"
   inkscape:window-height="905"
   id="namedview1412"
   showgrid="false"
   inkscape:zoom="3.0928514"
   inkscape:cx="62.046538"
   inkscape:cy="101.01276"
   inkscape:window-x="-8"
   inkscape:window-y="-8"
   inkscape:window-maximized="1"
   inkscape:current-layer="svg8"
   inkscape:document-rotation="0" />
<style
   type="text/css"
   id="style1393">
	.st0{fill:#FFEB1D;}
</style>


<ellipse
   style="fill:#ffffff;fill-opacity:1;stroke:#0000fd;stroke-width:1.5045;stroke-opacity:1"
   id="path985"
   cx="62.5"
   cy="62.5"
   rx="41.813461"
   ry="39.878647" /><g
   id="g993"
   transform="translate(23.75417,5.2926918)"><path
     style="fill:#0000fd;fill-opacity:1;stroke:none;stroke-width:1px;stroke-linecap:butt;stroke-linejoin:miter;stroke-opacity:1"
     d="m 38.92767,34.574119 -2.10162,-0.565821 -6.78985,4.769062 -12.40764,-3.516173 -0.0404,3.435342 c 0,0 0.96998,6.183614 5.90071,8.406482 4.93072,2.222868 13.17554,4.081994 13.17554,4.081994 l 29.82685,8.04274 2.78868,-9.861451 -37.22293,-10.184776 z"
     id="path957" /><path
     style="fill:#0000fd;fill-opacity:1;stroke:none;stroke-width:1px;stroke-linecap:butt;stroke-linejoin:miter;stroke-opacity:1"
     d="M 8.29251,46.981763 V 49.1238 l 26.31909,7.052178 1.48089,-1.480884 z"
     id="path959" /><path
     style="fill:#0000fd;fill-opacity:1;stroke:none;stroke-width:1px;stroke-linecap:butt;stroke-linejoin:miter;stroke-opacity:1"
     d="m 49.26894,58.356831 0.51441,2.400575 15.71805,4.115271 0.28578,-1.943322 z"
     id="path969" /><circle
     style="fill:#0000fd;fill-opacity:1;stroke:none;stroke-width:2.00234;stroke-opacity:1"
     id="path971"
     cx="41.438503"
     cy="61.100346"
     r="6.1157508" /><circle
     style="fill:#fffffd;fill-opacity:1;stroke:none;stroke-width:1.53846;stroke-opacity:1"
     id="path973"
     cx="41.438519"
     cy="61.100346"
     r="2.8578272" /><path
     style="fill:#0000fd;fill-opacity:1;stroke:none;stroke-width:1px;stroke-linecap:butt;stroke-linejoin:miter;stroke-opacity:1"
     d="m 68.59286,75.151562 0.0143,5.227504 c 0,0 -0.0963,-8.6e-5 -1.10552,-0.0947 -1.2933,-0.121248 -3.67702,-1.446246 -6.22403,-1.495383 -2.98761,-0.05764 -4.68823,1.657046 -7.75983,1.616632 -3.00386,-0.03952 -4.44574,-1.576217 -7.27484,-1.657048 -3.43394,-0.09811 -4.04158,1.454969 -7.63858,1.576216 -3.0716,0 -4.76906,-1.576216 -7.23442,-1.495384 -3.56431,0.116862 -4.52658,1.414552 -7.88109,1.535799 -3.23326,-0.04042 -4.54084,-1.568772 -7.27483,-1.5358 -2.85594,-0.09707 -4.33495,1.46146 -7.9215,1.454969 L 8.21172,58.298183 Z"
     id="path983"
     sodipodi:nodetypes="ccsssscsccccc" /></g></svg>
