<?xml version="1.0" encoding="utf-8"?>
<!-- Generator: Adobe Illustrator 25.4.1, SVG Export Plug-In . SVG Version: 6.00 Build 0)  -->
<svg version="1.1"
	 id="svg8" xmlns:cc="http://creativecommons.org/ns#" xmlns:dc="http://purl.org/dc/elements/1.1/" xmlns:inkscape="http://www.inkscape.org/namespaces/inkscape" xmlns:rdf="http://www.w3.org/1999/02/22-rdf-syntax-ns#" xmlns:sodipodi="http://sodipodi.sourceforge.net/DTD/sodipodi-0.dtd" xmlns:svg="http://www.w3.org/2000/svg"
	 xmlns="http://www.w3.org/2000/svg" xmlns:xlink="http://www.w3.org/1999/xlink" x="0px" y="0px" viewBox="0 0 125 125"
	 style="enable-background:new 0 0 125 125;" xml:space="preserve">
<style type="text/css">
	.st0{fill-rule:evenodd;clip-rule:evenodd;fill:#FFFFFF;stroke:#CC9933;stroke-miterlimit:10;}
	.st1{fill-rule:evenodd;clip-rule:evenodd;fill:#CC9933;}
</style>
<circle class="st0" cx="62.5" cy="62.5" r="56.2"/>
<sodipodi:namedview  bordercolor="#666666" borderopacity="1" gridtolerance="10" guidetolerance="10" id="namedview1412" inkscape:current-layer="svg8" inkscape:cx="241.47924" inkscape:cy="241.42925" inkscape:document-rotation="0" inkscape:pageopacity="0" inkscape:pageshadow="2" inkscape:window-height="1137" inkscape:window-maximized="1" inkscape:window-width="1920" inkscape:window-x="-8" inkscape:window-y="-8" inkscape:zoom="1.0934881" objecttolerance="10" pagecolor="#ffffff" showgrid="false">
	</sodipodi:namedview>
<g>
	<path class="st1" d="M57.6,70.6c-2.8-7-9-12.6-11.1-18.7c-1.9,0.6-3.8,1.3-5.4,2.2c0.7,15.8,9.4,26,16.5,31.3
		C59.9,79,59.3,74.9,57.6,70.6"/>
	<path class="st1" d="M73.1,43c7,1,13.4,2.9,18.5,5.9c0,11.2-3.2,20.2-7.5,27.4l6.7,7.7c6-9.2,10.5-21.2,10.5-36.3
		c-7.8-5.8-19.5-9.2-31.8-10.2C70.5,39.3,71.7,41.2,73.1,43"/>
	<path class="st1" d="M33.4,48.9c0,11.2,3.2,20.2,7.5,27.4l-6.7,7.7c-6-9.2-10.5-21.2-10.5-36.3c6-4.4,14.1-7.4,23-9.1
		c-0.6,1.9-1,3.8-1.1,5.5C41.1,45.3,36.9,46.8,33.4,48.9"/>
	<path class="st1" d="M62.5,107.6c-4.9-1.7-12.7-6.1-20.1-13.5l6.6-7.6c4.9,4.8,9.9,8,13.5,9.6c3.6-1.6,8.6-4.8,13.5-9.6l6.6,7.6
		C75.2,101.5,67.4,105.9,62.5,107.6"/>
	<path class="st1" d="M72.6,70.5c5.5-7.4,5.4-14.5,4.6-19c2.4,0.7,4.7,1.5,6.8,2.5c-0.8,19.9-14.4,30.8-21.4,34.4
		c-1-0.5-2-1.1-3.2-1.9c12.4-15.2,0.4-29.7-1.7-32.6c-2.1-2.9-4.7-7.4-5.6-11.4c-1.5-6.5-0.3-15.6,9.9-25.2l0.7,0.3
		c-4.9,9.2-4.4,14.4-2.3,20.1c2.3,6.3,10.4,14.7,12.1,22.2c0.7,2.9,0.8,6.4-0.3,10.3L72.6,70.5z"/>
</g>
</svg>
